<svg xmlns="http://www.w3.org/2000/svg" width="current" height="current" viewBox="0 0 28 28" fill="none">
<path d="M27.8942 12.7036V12.6873C27.6197 10.9435 26.7915 9.15734 25.3688 7.23103C24.024 5.25608 22.3486 3.52672 20.4159 2.11865C18.5282 0.754615 16.2601 0.0138247 13.9293 2.8282e-05C12.543 -0.00322356 11.1704 0.273978 9.89451 0.814881C8.47499 1.41624 7.03423 2.39244 5.48403 3.81028C2.93739 6.35099 -0.00292969 9.81085 -0.00292969 14.066V14.0839C0.0150389 14.4294 0.0689447 15.0976 0.104882 15.4317V15.448C0.385846 17.1999 1.20913 18.9812 2.61395 20.8814C3.71279 22.4737 5.02404 23.9091 6.51151 25.148C8.78699 27.014 11.3598 28 13.9538 28C16.5478 28 19.132 27.0108 21.4173 25.1415C23.0776 23.7701 24.5437 22.1802 25.7755 20.4153C27.2244 18.3619 27.9922 16.1683 27.9971 14.0595C27.9807 13.7221 27.9301 13.0507 27.8942 12.7036ZM14.0012 25.6712C11.4545 25.6712 9.02058 25.1448 7.15838 24.1914C3.74271 22.2879 2.36076 19.5255 2.3869 14.6478C2.3233 12.8956 2.48803 11.1426 2.87695 9.43276C3.27209 7.88955 4.09196 6.48734 5.24391 5.38458C6.4243 4.32311 7.84617 3.5646 9.38649 3.17469C10.879 2.81875 12.4078 2.63663 13.9423 2.632C15.4906 2.63545 17.0329 2.82477 18.5358 3.19588C21.8469 4.02866 24.4164 6.46996 25.0845 9.41647C25.4374 10.937 25.4749 12.5308 25.5125 14.0676C25.4766 18.6911 24.6729 21.9978 20.7933 24.1963C18.9458 25.148 16.5315 25.6712 14.0012 25.6712Z" fill="url(#paint0_radial_1544_77663)"/>
<ellipse cx="13.0191" cy="13.2911" rx="13.0191" ry="13.2911" transform="matrix(1 0 0 -1 1.06738 27.291)" fill="url(#paint1_radial_1544_77663)"/>
<defs>
<radialGradient id="paint0_radial_1544_77663" cx="0" cy="0" r="1" gradientUnits="userSpaceOnUse" gradientTransform="translate(14.1698 14.1496) rotate(134.652) scale(14.5877 14.8296)">
<stop offset="0.146423" stop-color="#573BFF"/>
<stop offset="0.671423" stop-color="#91F4E8"/>
<stop offset="0.848958" stop-color="#7E85FD"/>
<stop offset="0.900812" stop-color="#CBCEFF"/>
<stop offset="1" stop-color="#573BFF"/>
</radialGradient>
<radialGradient id="paint1_radial_1544_77663" cx="0" cy="0" r="1" gradientUnits="userSpaceOnUse" gradientTransform="translate(13.238 13.2972) rotate(90) scale(32.4056 33.1177)">
<stop offset="0.09375" stop-color="#7E85FD"/>
<stop offset="0.135417" stop-color="#91F4E8"/>
<stop offset="0.135517" stop-color="#666BFC" stop-opacity="0.08"/>
<stop offset="0.159966" stop-color="#91F4E8" stop-opacity="0.17"/>
<stop offset="0.317769" stop-color="#91F4E8" stop-opacity="0"/>
</radialGradient>
</defs>
</svg>