<svg width="32" height="32" viewBox="0 0 32 32" fill="none" xmlns="http://www.w3.org/2000/svg">
<path fill-rule="evenodd" clip-rule="evenodd" d="M0.723098 22.4888C1.30645 24.5818 2.2311 26.6805 3.74617 28.274L3.7465 28.2737C5.67955 30.2622 8.27775 31.5732 11.0204 31.9555C11.8639 32.033 12.7122 31.9936 13.5509 31.9548C13.7839 31.9439 14.0162 31.9332 14.2474 31.9249C14.9096 31.8931 15.577 31.8796 16.2446 31.8661C16.8918 31.8529 17.5391 31.8398 18.1821 31.81C24.2525 31.4011 29.5816 29.4461 31.0883 22.9388C31.1007 22.8923 31.1132 22.8456 31.1257 22.7988C31.3911 21.8046 31.6787 20.7272 31.8107 19.7153C32.011 18.4046 32.0093 17.022 31.9937 15.7297C31.9167 14.135 31.9068 12.5759 31.9462 10.9666C31.7066 8.21098 30.2692 5.64565 28.3213 3.71734C25.537 1.09067 21.6217 0.00524877 17.8667 0.0192253C15.1819 -0.0657871 12.5429 0.125121 9.88646 0.712313C8.20847 1.06338 6.52719 1.60321 5.09818 2.58357C2.66882 4.22971 1.23882 6.93234 0.668628 9.75386L0.665996 9.76623C0.373878 11.1385 0.0954579 12.4465 0.0347542 13.8154C-0.0409419 15.1233 0.0182985 16.4779 0.104527 17.7802C0.127482 18.0372 0.148776 18.2943 0.17007 18.5515C0.279443 19.8723 0.388802 21.1929 0.723098 22.4888ZM3.23542 23.9599C3.69948 22.6512 4.52035 21.3481 5.24272 20.2012C5.55281 19.709 5.84474 19.2455 6.08251 18.8228C6.67933 17.8373 7.17373 16.7956 7.67017 15.7496C7.84294 15.3856 8.01595 15.021 8.19361 14.6582C8.35997 14.2864 8.50998 13.8913 8.66199 13.4911C9.0955 12.3495 9.54527 11.1652 10.4369 10.3536C11.5799 9.21049 13.0798 8.4957 14.5755 7.90456C16.0506 7.29484 17.4643 6.63464 18.8757 5.94319C19.5866 5.61094 20.2798 5.19329 20.976 4.77378C21.9869 4.16468 23.0044 3.55165 24.0922 3.19036C21.004 0.988822 17.1077 -0.0964255 13.4478 1.48515C11.3628 2.22518 9.8877 3.82756 8.42744 5.4138C7.95518 5.92681 7.48447 6.43813 6.99519 6.91804C6.48156 7.48322 5.92516 8.01245 5.36789 8.5425C4.5879 9.28439 3.80623 10.0279 3.13781 10.8738C2.53602 11.6241 2.07823 12.5173 1.70616 13.4021C0.716352 15.6784 0.44697 18.3322 1.41144 20.6598C1.77083 21.577 2.20444 22.4555 2.72461 23.2825C2.88609 23.5091 3.05717 23.7353 3.23542 23.9599ZM8.54342 28.7971C9.46373 29.369 10.4375 29.8628 11.453 30.2693C11.6092 30.3317 11.7664 30.3967 11.9247 30.4622C12.683 30.7757 13.4666 31.0997 14.2824 31.2016C16.2764 31.4754 18.2813 30.7979 19.9995 29.8269C21.6864 28.7987 23.0217 27.3743 24.3591 25.9478C25.2505 24.997 26.1427 24.0453 27.1406 23.2091C27.8401 22.5776 28.5454 21.8945 29.1136 21.134C30.492 19.1203 31.4854 16.675 31.3774 14.1954C31.3636 13.1812 30.9132 12.2263 30.4704 11.3448C29.9816 10.3055 29.4547 9.28702 28.855 8.32142C28.4632 9.28352 27.8605 10.1304 27.2573 10.9781C27.2241 11.0247 27.191 11.0713 27.1578 11.1179C26.37 12.3135 25.8157 13.6152 25.259 14.9223C24.899 15.7677 24.538 16.6155 24.1122 17.4381C23.48 18.8983 22.8114 20.4359 21.6137 21.5221C20.5942 22.5348 19.1828 23.0713 17.8421 23.5809C17.6699 23.6464 17.4988 23.7115 17.3298 23.777C15.8863 24.4084 14.5106 25.0905 13.1887 25.9122C12.5772 26.2627 12.007 26.6722 11.4354 27.0826C10.7334 27.5866 10.0294 28.0922 9.24414 28.492C9.02335 28.6001 8.78836 28.7033 8.54342 28.7971ZM26.6252 5.43079C27.197 6.26259 27.0898 7.30662 26.9828 8.34921C26.9733 8.44168 26.9638 8.53413 26.9548 8.62642C26.8774 9.34105 26.7835 10.1039 26.5365 10.8104C26.0481 12.2561 24.9824 13.3861 23.8356 14.3558C22.7515 15.4078 21.4569 16.239 20.1778 17.0229C18.9282 17.8595 17.9535 18.8812 17.2206 20.2088C16.5268 21.567 15.7404 22.9379 14.6184 23.9876C13.0691 25.6298 10.8723 26.505 8.67346 26.7542C7.57685 26.9246 6.43088 27.0598 5.54655 26.477L5.54622 26.477C4.79584 25.6867 4.89786 24.3851 5.0769 23.2896C5.49981 21.1609 6.45161 18.9762 8.10031 17.4573C8.64976 16.9379 9.23345 16.4526 9.84017 15.9983C10.3111 15.6605 10.8494 15.3876 11.39 15.1135C12.2264 14.6895 13.0682 14.2627 13.6737 13.5887C14.5279 12.746 15.1632 11.7204 15.7996 10.6929C15.9502 10.4498 16.1008 10.2066 16.2544 9.96573C17.0836 8.69187 18.1177 7.57043 19.3109 6.64779C20.7655 5.4402 25.0639 4.00238 26.5991 5.40302C26.6047 5.40908 26.6102 5.41514 26.6158 5.4212C26.619 5.4244 26.6221 5.42759 26.6252 5.43079Z" fill="#6058FD"/>
<mask id="mask0_17_1973" style="mask-type:alpha" maskUnits="userSpaceOnUse" x="2" y="1" width="29" height="30">
<ellipse cx="16.3705" cy="15.7856" rx="14.2758" ry="14.2651" fill="white"/>
</mask>
<g mask="url(#mask0_17_1973)">
<path d="M3.72373 28.2682C1.23925 25.3752 4.62781 21.3594 6.05765 18.8174C6.86217 17.489 7.48057 16.0584 8.16875 14.6528C8.80953 13.2206 9.20776 11.4444 10.412 10.3483C11.555 9.20513 13.0549 8.49034 14.5506 7.8992C16.0257 7.28948 17.4394 6.62928 18.8508 5.93783C21.4037 4.7447 23.7278 2.45036 26.7882 2.92294C28.4975 3.22402 29.5204 5.06173 29.2427 6.68617C29.0657 8.44923 28.0856 9.77193 27.133 11.1126C25.8356 13.0815 25.1713 15.3383 24.0873 17.4327C23.4551 18.8929 22.7865 20.4305 21.5889 21.5168C20.4383 22.6596 18.7888 23.196 17.305 23.7716C15.8615 24.4031 14.4858 25.0851 13.1639 25.9068C11.8013 26.6879 10.6438 27.7613 9.21928 28.4866C7.59247 29.2831 5.19504 29.8144 3.72422 28.2684L3.72373 28.2682ZM5.52168 26.4716C6.40601 27.0544 7.55198 26.9192 8.64859 26.7489C10.8474 26.4996 13.0442 25.6245 14.5935 23.9823C15.7155 22.9325 16.5019 21.5617 17.1957 20.2034C17.9286 18.8758 18.9033 17.8542 20.1529 17.0175C21.432 16.2337 22.7266 15.4025 23.8107 14.3504C24.9575 13.3808 26.0232 12.2508 26.5116 10.8051C26.7586 10.0985 26.8526 9.33569 26.9299 8.62106C27.041 7.484 27.2241 6.32261 26.5935 5.41559C25.0755 3.98485 20.7468 5.42973 19.2861 6.64243C18.0929 7.56507 17.0588 8.68651 16.2296 9.96037C15.4267 11.2194 14.7051 12.5413 13.6488 13.5833C12.6519 14.6929 11.0148 15.1325 9.81531 15.9929C9.20858 16.4473 8.6249 16.9325 8.07544 17.452C6.42674 18.9708 5.47495 21.1555 5.05204 23.2843C4.873 24.3797 4.77097 25.6814 5.52135 26.4716L5.52168 26.4716Z" fill="#6058FD"/>
</g>
</svg>
