<svg width="48" height="36" viewBox="0 0 48 36" fill="none" xmlns="http://www.w3.org/2000/svg">
<path fill-rule="evenodd" clip-rule="evenodd" d="M24 34C30.6387 34 36.333 29.9569 38.755 24.1986C39.0489 23.4999 38.4199 22.8021 37.6731 22.9317C36.1454 23.1969 34.4886 23.4189 32.731 23.5906C32.4343 23.6196 32.1673 23.7793 31.9877 24.0173C30.1625 26.4364 27.2639 28 24 28C20.7361 28 17.8375 26.4364 16.0123 24.0173C15.8327 23.7793 15.5657 23.6196 15.269 23.5906C13.5114 23.4189 11.8546 23.1969 10.3269 22.9317C9.58007 22.8021 8.95111 23.4999 9.24501 24.1986C11.667 29.9569 17.3613 34 24 34ZM34.9366 21.5271C34.1886 21.6257 33.6113 20.8722 33.7716 20.1349C33.9212 19.447 34 18.7327 34 18C34 17.2673 33.9212 16.553 33.7716 15.8651C33.6113 15.1278 34.1886 14.3743 34.9366 14.4729C36.4431 14.6713 37.8463 14.9089 39.1236 15.1792C39.5198 15.263 39.8238 15.583 39.8743 15.9848C39.9573 16.6449 40 17.3174 40 18C40 18.6826 39.9573 19.3551 39.8743 20.0152C39.8238 20.417 39.5198 20.737 39.1236 20.8208C37.8463 21.0911 36.4431 21.3287 34.9366 21.5271ZM13.0634 14.4729C13.8114 14.3743 14.3887 15.1278 14.2284 15.8651C14.0788 16.553 14 17.2673 14 18C14 18.7327 14.0788 19.447 14.2284 20.1349C14.3887 20.8722 13.8114 21.6256 13.0634 21.5271C11.5569 21.3287 10.1537 21.0911 8.87639 20.8208C8.48019 20.737 8.17619 20.417 8.12569 20.0152C8.04274 19.3551 8 18.6826 8 18C8 17.3174 8.04274 16.6449 8.12569 15.9848C8.17619 15.583 8.48019 15.263 8.87639 15.1792C10.1537 14.9089 11.5569 14.6713 13.0634 14.4729ZM16.0123 11.9827C15.8327 12.2207 15.5657 12.3804 15.269 12.4094C13.5114 12.5811 11.8546 12.8031 10.3269 13.0683C9.58007 13.1979 8.95111 12.5001 9.24501 11.8014C11.667 6.04314 17.3613 2 24 2C30.6387 2 36.333 6.04314 38.755 11.8014C39.0489 12.5001 38.4199 13.1979 37.6731 13.0683C36.1454 12.8031 34.4886 12.5811 32.731 12.4094C32.4343 12.3804 32.1673 12.2207 31.9877 11.9827C30.1625 9.56365 27.2639 8 24 8C20.7361 8 17.8375 9.56365 16.0123 11.9827ZM24 36C32.3223 36 39.3255 30.352 41.3856 22.68C41.4814 22.3233 41.7558 22.0391 42.1108 21.9371C45.7789 20.8834 48 19.5066 48 18C48 16.4934 45.7789 15.1166 42.1108 14.0629C41.7558 13.9609 41.4814 13.6767 41.3856 13.32C39.3255 5.64796 32.3223 0 24 0C15.6777 0 8.67452 5.64796 6.61442 13.32C6.51864 13.6767 6.24422 13.9609 5.88925 14.0629C2.22106 15.1166 0 16.4934 0 18C0 19.5066 2.22106 20.8834 5.88924 21.9371C6.24421 22.0391 6.51864 22.3233 6.61442 22.68C8.67452 30.352 15.6777 36 24 36ZM45.1981 17.2141C44.7064 16.9235 44.0779 16.6321 43.3173 16.3486C42.6438 16.0977 41.9655 16.666 41.9897 17.3843C41.9965 17.5887 42 17.794 42 18C42 18.206 41.9965 18.4113 41.9897 18.6157C41.9655 19.334 42.6438 19.9023 43.3173 19.6514C44.0779 19.3679 44.7064 19.0765 45.1981 18.7859C45.4086 18.6615 45.5754 18.549 45.7074 18.4497C46.0224 18.2128 46.0224 17.7872 45.7074 17.5503C45.5754 17.451 45.4086 17.3385 45.1981 17.2141ZM2.80193 17.2141C3.29356 16.9235 3.92206 16.6321 4.68271 16.3486C5.35621 16.0977 6.03448 16.666 6.01033 17.3843C6.00346 17.5887 6 17.7939 6 18C6 18.206 6.00346 18.4113 6.01033 18.6157C6.03448 19.334 5.35621 19.9023 4.68271 19.6514C3.92206 19.3679 3.29356 19.0765 2.80193 18.7859C2.59141 18.6615 2.42462 18.549 2.29257 18.4497C1.9776 18.2128 1.9776 17.7872 2.29256 17.5503C2.42462 17.451 2.59141 17.3385 2.80193 17.2141Z" fill="#6058FD"/>
</svg>
