<svg width="960" height="1280" viewBox="0 0 960 1280" fill="none" xmlns="http://www.w3.org/2000/svg">
<g clip-path="url(#clip0_230_988)">
<mask id="path-1-outside-1_230_988" maskUnits="userSpaceOnUse" x="-532.69" y="-1179" width="2686" height="5480" fill="black">
<rect fill="white" x="-532.69" y="-1179" width="2686" height="5480"/>
<path fill-rule="evenodd" clip-rule="evenodd" d="M1036.92 3700.53L1036.7 3700.43L1036.69 3700.43C1009.57 3688.16 982.61 3675.96 955.828 3663.83C946.674 3659.68 936.837 3668.01 939.465 3677.71C1033.8 4025.94 1232.38 4226.87 1353.31 4299.64C1353.6 4299.82 1353.53 4300.24 1353.21 4300.35V4300.35C1353.1 4300.39 1352.98 4300.38 1352.88 4300.32C1229.6 4226.38 1025.42 4019.2 933.142 3658.55C932.236 3655.01 929.748 3652 926.419 3650.49C405.269 3414.05 -44.897 3199.9 -302.204 2922.68C-613.534 2587.27 -642.501 2159.57 -173.611 1488.42C131.703 1051.41 346.015 624.452 476.702 244.772C479.718 236.009 472.025 227.383 462.961 229.318C340.402 255.476 221.943 288.775 113.636 327.181C-174.002 429.178 -389.902 567.148 -420.927 702.957C-420.998 703.268 -421.287 703.473 -421.604 703.444V703.444C-421.986 703.41 -422.251 703.054 -422.166 702.68C-390.959 566.709 -174.842 428.692 112.802 326.693C225.455 286.746 349.1 252.316 476.939 225.693C481.114 224.823 484.525 221.813 485.882 217.769C490.144 205.075 494.312 192.436 498.385 179.852C500.165 174.354 497.705 168.34 492.596 165.639C103.128 -40.2905 -301.428 20.8591 -513.411 64.342C-513.682 64.3975 -513.933 64.2206 -513.989 63.9501V63.9501C-514.044 63.6796 -513.883 63.418 -513.613 63.3625C-302.337 20.0247 100.411 -40.9141 488.929 162.579C495.581 166.063 503.873 162.781 506.135 155.62C562.243 -21.9892 599.419 -188.149 618.466 -338.807C649.511 -584.375 632.388 -788.745 570.593 -934.38C539.694 -1007.2 497.634 -1065.32 444.868 -1106.55C392.201 -1147.71 328.918 -1172.02 255.495 -1177.4C255.29 -1177.41 255.158 -1177.62 255.238 -1177.81V-1177.81C255.288 -1177.93 255.409 -1178.01 255.537 -1178C329.557 -1172.61 393.169 -1148.14 445.981 -1106.87C498.847 -1065.55 540.942 -1007.37 571.854 -934.515C633.679 -788.812 650.797 -584.387 619.748 -338.795C600.528 -186.761 562.848 -18.9448 505.884 160.49C504.136 165.994 506.537 171.973 511.593 174.762C529.258 184.503 546.885 194.804 564.456 205.691C566.976 207.253 569.98 207.839 572.901 207.329C742.463 177.735 916.318 162.501 1079.2 166.768C1238.31 170.936 1386.98 193.712 1510.93 239.902C1634.88 286.091 1734.07 355.673 1794.29 453.404C1914.71 648.85 1879.33 956.925 1574.51 1415.87C1356.93 1743.47 1200.94 2040.59 1093.12 2308.64C1088.84 2319.27 1100.64 2329.27 1110.63 2323.64C1488.21 2110.69 1958.67 2111.06 2119.09 2111.19C2131.99 2111.2 2142.88 2111.21 2151.56 2111.1C2151.84 2111.1 2152.07 2111.32 2152.07 2111.6V2111.6C2152.07 2111.87 2151.85 2112.1 2151.58 2112.1C2142.89 2112.21 2131.99 2112.2 2119.09 2112.19C1954.15 2112.06 1461.84 2111.68 1079.61 2342.92V2342.92C1079.54 2342.96 1079.49 2343.02 1079.47 2343.09C897.089 2810.09 861.868 3187.37 900.673 3482.61C908.286 3540.54 918.749 3595.31 931.509 3646.98C932.386 3650.53 934.849 3653.47 938.179 3654.98C971.057 3669.89 1004.21 3684.89 1037.62 3700C1111.62 3733.48 1186.84 3767.51 1262.95 3802.32C1263.25 3802.46 1263.25 3802.88 1262.95 3803.02V3803.02C1262.85 3803.07 1262.73 3803.07 1262.63 3803.02C1186.41 3768.16 1111.08 3734.08 1036.97 3700.55L1036.92 3700.53ZM1047.29 2361.83C1057.26 2356.19 1069.16 2366.27 1065.1 2376.98C894.135 2828.35 861.53 3194.51 899.394 3482.6C906.071 3533.4 914.941 3581.78 925.63 3627.77C927.904 3637.55 917.921 3645.79 908.775 3641.64C395.514 3408.52 -46.8664 3196.25 -301.02 2922.43C-612.187 2587.19 -641.225 2159.65 -172.389 1488.58C136.599 1046.31 352.39 614.336 482.627 231.228C484 227.19 487.396 224.206 491.576 223.356C515.323 218.528 539.205 213.972 563.179 209.702C566.099 209.181 569.109 209.765 571.618 211.346C590.812 223.439 609.934 236.238 628.958 249.779C840.686 400.479 1105.28 468.169 1332.13 498.415C1521.61 523.68 1684.8 522.823 1768.85 522.382C1785.15 522.296 1798.47 522.226 1808.43 522.365C1808.71 522.369 1808.93 522.148 1808.94 521.872V521.872C1808.94 521.596 1808.72 521.369 1808.45 521.365C1798.48 521.226 1785.16 521.296 1768.86 521.381L1768.83 521.381C1684.77 521.823 1521.67 522.679 1332.26 497.423C1105.49 467.187 841.075 399.528 629.538 248.965C618.207 240.899 606.841 233.097 595.447 225.55C586.281 219.48 589.131 205.176 599.977 203.384C760.955 176.787 925.044 163.325 1079.25 167.364C1238.14 171.526 1386.51 194.269 1510.19 240.355C1633.86 286.441 1732.9 355.892 1793.06 453.519C1913.37 648.789 1878.09 956.73 1573.28 1415.65C1347.47 1755.64 1188 2062.8 1079.85 2338.72C1078.89 2341.18 1077.12 2343.26 1074.85 2344.62C658.538 2594.27 216.787 2535.96 -13.4842 2495.81C-13.7563 2495.76 -14.0022 2495.95 -14.0496 2496.22V2496.22C-14.0971 2496.49 -13.9281 2496.75 -13.6561 2496.79C211.484 2536.05 638.991 2592.72 1047.29 2361.83ZM536.111 213.987C546.923 211.961 549.614 197.749 540.133 192.172C531.838 187.293 523.533 182.541 515.219 177.913C508.653 174.259 500.422 177.572 498.098 184.717C495.991 191.195 493.859 197.687 491.703 204.194C488.789 212.986 496.471 221.678 505.556 219.878C515.719 217.864 525.905 215.9 536.111 213.987Z"/>
</mask>
<path fill-rule="evenodd" clip-rule="evenodd" d="M1036.92 3700.53L1036.7 3700.43L1036.69 3700.43C1009.57 3688.16 982.61 3675.96 955.828 3663.83C946.674 3659.68 936.837 3668.01 939.465 3677.71C1033.8 4025.94 1232.38 4226.87 1353.31 4299.64C1353.6 4299.82 1353.53 4300.24 1353.21 4300.35V4300.35C1353.1 4300.39 1352.98 4300.38 1352.88 4300.32C1229.6 4226.38 1025.42 4019.2 933.142 3658.55C932.236 3655.01 929.748 3652 926.419 3650.49C405.269 3414.05 -44.897 3199.9 -302.204 2922.68C-613.534 2587.27 -642.501 2159.57 -173.611 1488.42C131.703 1051.41 346.015 624.452 476.702 244.772C479.718 236.009 472.025 227.383 462.961 229.318C340.402 255.476 221.943 288.775 113.636 327.181C-174.002 429.178 -389.902 567.148 -420.927 702.957C-420.998 703.268 -421.287 703.473 -421.604 703.444V703.444C-421.986 703.41 -422.251 703.054 -422.166 702.68C-390.959 566.709 -174.842 428.692 112.802 326.693C225.455 286.746 349.1 252.316 476.939 225.693C481.114 224.823 484.525 221.813 485.882 217.769C490.144 205.075 494.312 192.436 498.385 179.852C500.165 174.354 497.705 168.34 492.596 165.639C103.128 -40.2905 -301.428 20.8591 -513.411 64.342C-513.682 64.3975 -513.933 64.2206 -513.989 63.9501V63.9501C-514.044 63.6796 -513.883 63.418 -513.613 63.3625C-302.337 20.0247 100.411 -40.9141 488.929 162.579C495.581 166.063 503.873 162.781 506.135 155.62C562.243 -21.9892 599.419 -188.149 618.466 -338.807C649.511 -584.375 632.388 -788.745 570.593 -934.38C539.694 -1007.2 497.634 -1065.32 444.868 -1106.55C392.201 -1147.71 328.918 -1172.02 255.495 -1177.4C255.29 -1177.41 255.158 -1177.62 255.238 -1177.81V-1177.81C255.288 -1177.93 255.409 -1178.01 255.537 -1178C329.557 -1172.61 393.169 -1148.14 445.981 -1106.87C498.847 -1065.55 540.942 -1007.37 571.854 -934.515C633.679 -788.812 650.797 -584.387 619.748 -338.795C600.528 -186.761 562.848 -18.9448 505.884 160.49C504.136 165.994 506.537 171.973 511.593 174.762C529.258 184.503 546.885 194.804 564.456 205.691C566.976 207.253 569.98 207.839 572.901 207.329C742.463 177.735 916.318 162.501 1079.2 166.768C1238.31 170.936 1386.98 193.712 1510.93 239.902C1634.88 286.091 1734.07 355.673 1794.29 453.404C1914.71 648.85 1879.33 956.925 1574.51 1415.87C1356.93 1743.47 1200.94 2040.59 1093.12 2308.64C1088.84 2319.27 1100.64 2329.27 1110.63 2323.64C1488.21 2110.69 1958.67 2111.06 2119.09 2111.19C2131.99 2111.2 2142.88 2111.21 2151.56 2111.1C2151.84 2111.1 2152.07 2111.32 2152.07 2111.6V2111.6C2152.07 2111.87 2151.85 2112.1 2151.58 2112.1C2142.89 2112.21 2131.99 2112.2 2119.09 2112.19C1954.15 2112.06 1461.84 2111.68 1079.61 2342.92V2342.92C1079.54 2342.96 1079.49 2343.02 1079.47 2343.09C897.089 2810.09 861.868 3187.37 900.673 3482.61C908.286 3540.54 918.749 3595.31 931.509 3646.98C932.386 3650.53 934.849 3653.47 938.179 3654.98C971.057 3669.89 1004.21 3684.89 1037.62 3700C1111.62 3733.48 1186.84 3767.51 1262.95 3802.32C1263.25 3802.46 1263.25 3802.88 1262.95 3803.02V3803.02C1262.85 3803.07 1262.73 3803.07 1262.63 3803.02C1186.41 3768.16 1111.08 3734.08 1036.97 3700.55L1036.92 3700.53ZM1047.29 2361.83C1057.26 2356.19 1069.16 2366.27 1065.1 2376.98C894.135 2828.35 861.53 3194.51 899.394 3482.6C906.071 3533.4 914.941 3581.78 925.63 3627.77C927.904 3637.55 917.921 3645.79 908.775 3641.64C395.514 3408.52 -46.8664 3196.25 -301.02 2922.43C-612.187 2587.19 -641.225 2159.65 -172.389 1488.58C136.599 1046.31 352.39 614.336 482.627 231.228C484 227.19 487.396 224.206 491.576 223.356C515.323 218.528 539.205 213.972 563.179 209.702C566.099 209.181 569.109 209.765 571.618 211.346C590.812 223.439 609.934 236.238 628.958 249.779C840.686 400.479 1105.28 468.169 1332.13 498.415C1521.61 523.68 1684.8 522.823 1768.85 522.382C1785.15 522.296 1798.47 522.226 1808.43 522.365C1808.71 522.369 1808.93 522.148 1808.94 521.872V521.872C1808.94 521.596 1808.72 521.369 1808.45 521.365C1798.48 521.226 1785.16 521.296 1768.86 521.381L1768.83 521.381C1684.77 521.823 1521.67 522.679 1332.26 497.423C1105.49 467.187 841.075 399.528 629.538 248.965C618.207 240.899 606.841 233.097 595.447 225.55C586.281 219.48 589.131 205.176 599.977 203.384C760.955 176.787 925.044 163.325 1079.25 167.364C1238.14 171.526 1386.51 194.269 1510.19 240.355C1633.86 286.441 1732.9 355.892 1793.06 453.519C1913.37 648.789 1878.09 956.73 1573.28 1415.65C1347.47 1755.64 1188 2062.8 1079.85 2338.72C1078.89 2341.18 1077.12 2343.26 1074.85 2344.62C658.538 2594.27 216.787 2535.96 -13.4842 2495.81C-13.7563 2495.76 -14.0022 2495.95 -14.0496 2496.22V2496.22C-14.0971 2496.49 -13.9281 2496.75 -13.6561 2496.79C211.484 2536.05 638.991 2592.72 1047.29 2361.83ZM536.111 213.987C546.923 211.961 549.614 197.749 540.133 192.172C531.838 187.293 523.533 182.541 515.219 177.913C508.653 174.259 500.422 177.572 498.098 184.717C495.991 191.195 493.859 197.687 491.703 204.194C488.789 212.986 496.471 221.678 505.556 219.878C515.719 217.864 525.905 215.9 536.111 213.987Z" fill="url(#paint0_radial_230_988)" fill-opacity="0.3"/>
<path d="M1036.7 3700.43L1036.58 3700.7L1036.56 3700.7L1036.55 3700.69L1036.7 3700.43ZM1036.92 3700.53L1036.8 3700.81L1036.8 3700.8L1036.92 3700.53ZM1036.69 3700.43L1036.82 3700.15L1036.83 3700.16L1036.84 3700.17L1036.69 3700.43ZM-302.204 2922.68L-301.984 2922.48L-301.984 2922.48L-302.204 2922.68ZM-173.611 1488.42L-173.857 1488.25L-173.857 1488.25L-173.611 1488.42ZM113.636 327.181L113.536 326.898L113.536 326.898L113.636 327.181ZM112.802 326.693L112.902 326.976L112.902 326.976L112.802 326.693ZM618.466 -338.807L618.168 -338.844L618.168 -338.844L618.466 -338.807ZM570.593 -934.38L570.869 -934.497L570.869 -934.497L570.593 -934.38ZM444.868 -1106.55L444.683 -1106.32L444.683 -1106.32L444.868 -1106.55ZM445.981 -1106.87L445.797 -1106.63L445.797 -1106.63L445.981 -1106.87ZM571.854 -934.515L571.577 -934.398L571.577 -934.398L571.854 -934.515ZM619.748 -338.795L619.451 -338.833L619.451 -338.833L619.748 -338.795ZM1079.2 166.768L1079.21 166.468L1079.21 166.468L1079.2 166.768ZM1510.93 239.902L1510.82 240.183L1510.82 240.183L1510.93 239.902ZM1794.29 453.404L1794.03 453.561L1794.03 453.561L1794.29 453.404ZM1574.51 1415.87L1574.76 1416.04L1574.76 1416.04L1574.51 1415.87ZM2119.09 2111.19L2119.09 2110.89L2119.09 2110.89L2119.09 2111.19ZM2119.09 2112.19L2119.09 2112.49L2119.09 2112.49L2119.09 2112.19ZM900.673 3482.61L900.376 3482.65L900.376 3482.65L900.673 3482.61ZM1037.62 3700L1037.74 3699.73L1037.74 3699.73L1037.62 3700ZM1036.97 3700.55L1037.09 3700.28L1037.09 3700.28L1036.97 3700.55ZM899.394 3482.6L899.096 3482.63L899.096 3482.63L899.394 3482.6ZM-301.02 2922.43L-301.24 2922.64L-301.24 2922.64L-301.02 2922.43ZM-172.389 1488.58L-172.635 1488.41L-172.635 1488.41L-172.389 1488.58ZM628.958 249.779L628.784 250.024L628.784 250.024L628.958 249.779ZM1332.13 498.415L1332.09 498.712L1332.09 498.712L1332.13 498.415ZM1768.85 522.382L1768.85 522.682L1768.85 522.682L1768.85 522.382ZM1768.86 521.381L1768.87 521.681L1768.86 521.681L1768.86 521.381ZM1768.83 521.381L1768.83 521.081L1768.83 521.081L1768.83 521.381ZM1332.26 497.423L1332.22 497.721L1332.22 497.721L1332.26 497.423ZM629.538 248.965L629.364 249.209L629.364 249.209L629.538 248.965ZM1079.25 167.364L1079.24 167.664L1079.24 167.664L1079.25 167.364ZM1510.19 240.355L1510.08 240.636L1510.08 240.636L1510.19 240.355ZM1793.06 453.519L1792.8 453.676L1793.06 453.519ZM1573.28 1415.65L1573.53 1415.81L1573.53 1415.81L1573.28 1415.65ZM505.556 219.878L505.498 219.583L505.556 219.878ZM536.111 213.987L536.056 213.692L536.111 213.987ZM-13.4842 2495.81L-13.5358 2496.1L-13.4842 2495.81ZM1079.85 2338.72L1080.13 2338.83L1079.85 2338.72ZM1074.85 2344.62L1075.01 2344.87L1074.85 2344.62ZM1808.45 521.365L1808.44 521.665L1808.45 521.365ZM925.63 3627.77L925.337 3627.84L925.63 3627.77ZM908.775 3641.64L908.899 3641.36L908.775 3641.64ZM1065.1 2376.98L1065.38 2377.09L1065.1 2376.98ZM1047.29 2361.83L1047.43 2362.09L1047.29 2361.83ZM1262.63 3803.02L1262.75 3802.75L1262.63 3803.02ZM1262.95 3802.32L1263.07 3802.05L1262.95 3802.32ZM2151.58 2112.1L2151.57 2111.8L2151.58 2112.1ZM1093.12 2308.64L1093.4 2308.75L1093.12 2308.64ZM1110.63 2323.64L1110.48 2323.38L1110.63 2323.64ZM515.219 177.913L515.364 177.651L515.219 177.913ZM498.098 184.717L498.383 184.81L498.098 184.717ZM255.537 -1178L255.516 -1177.7L255.537 -1178ZM-13.6561 2496.79L-13.6046 2496.5L-13.6561 2496.79ZM255.495 -1177.4L255.517 -1177.7L255.495 -1177.4ZM931.509 3646.98L931.218 3647.05L931.509 3646.98ZM938.179 3654.98L938.303 3654.71L938.179 3654.98ZM488.929 162.579L489.068 162.313L488.929 162.579ZM506.135 155.62L506.421 155.71L506.135 155.62ZM2151.56 2111.1L2151.57 2111.4L2151.56 2111.1ZM-422.166 702.68L-422.458 702.613L-422.166 702.68ZM-420.927 702.957L-420.635 703.024L-420.927 702.957ZM-513.613 63.3625L-513.552 63.6564L-513.613 63.3625ZM926.419 3650.49L926.295 3650.77L926.419 3650.49ZM1079.47 2343.09L1079.75 2343.19L1079.47 2343.09ZM-513.411 64.342L-513.472 64.0481L-513.411 64.342ZM564.456 205.691L564.297 205.946L564.456 205.691ZM572.901 207.329L572.952 207.625L572.901 207.329ZM563.179 209.702L563.126 209.406L563.179 209.702ZM571.618 211.346L571.458 211.599L571.618 211.346ZM1352.88 4300.32L1352.73 4300.58L1352.88 4300.32ZM1808.43 522.365L1808.43 522.665L1808.43 522.365ZM476.702 244.772L476.985 244.87L476.702 244.772ZM462.961 229.318L462.898 229.025L462.961 229.318ZM595.447 225.55L595.281 225.8L595.447 225.55ZM599.977 203.384L600.026 203.68L599.977 203.384ZM498.385 179.852L498.671 179.944L498.385 179.852ZM492.596 165.639L492.456 165.904L492.596 165.639ZM505.884 160.49L506.169 160.581L505.884 160.49ZM511.593 174.762L511.448 175.024L511.593 174.762ZM482.627 231.228L482.912 231.325L482.627 231.228ZM1353.31 4299.64L1353.15 4299.9L1353.31 4299.64ZM476.939 225.693L476.877 225.399L476.877 225.399L476.939 225.693ZM485.882 217.769L486.166 217.865L485.882 217.769ZM955.828 3663.83L955.952 3663.55L955.828 3663.83ZM939.465 3677.71L939.175 3677.79L939.465 3677.71ZM1036.82 3700.16L1037.05 3700.26L1036.8 3700.8L1036.58 3700.7L1036.82 3700.16ZM1036.84 3700.17L1036.85 3700.17L1036.55 3700.69L1036.55 3700.69L1036.84 3700.17ZM955.952 3663.55C982.734 3675.69 1009.69 3687.88 1036.82 3700.15L1036.57 3700.7C1009.45 3688.43 982.486 3676.23 955.705 3664.1L955.952 3663.55ZM1353.15 4299.9C1232.16 4227.08 1033.53 4026.09 939.175 3677.79L939.754 3677.63C1034.07 4025.78 1232.61 4226.65 1353.46 4299.39L1353.15 4299.9ZM933.433 3658.47C1025.69 4019.05 1229.82 4226.16 1353.04 4300.06L1352.73 4300.58C1229.37 4226.59 1025.15 4019.34 932.852 3658.62L933.433 3658.47ZM-301.984 2922.48C-173.361 3061.05 3.476 3183.88 213.313 3301.61C423.149 3419.35 665.967 3532 926.543 3650.22L926.295 3650.77C665.721 3532.54 422.881 3419.89 213.019 3302.14C3.1594 3184.39 -173.74 3061.53 -302.424 2922.89L-301.984 2922.48ZM-173.365 1488.59C-407.795 1824.15 -517.741 2098.8 -530.19 2331.47C-542.638 2564.12 -457.604 2754.82 -301.984 2922.48L-302.424 2922.89C-458.134 2755.13 -543.248 2564.28 -530.79 2331.44C-518.332 2098.61 -408.317 1823.85 -173.857 1488.25L-173.365 1488.59ZM476.985 244.87C346.289 624.579 131.964 1051.56 -173.365 1488.59L-173.857 1488.25C131.443 1051.26 345.741 624.326 476.418 244.674L476.985 244.87ZM113.536 326.898C221.856 288.487 340.327 255.185 462.898 229.025L463.024 229.611C340.476 255.767 222.03 289.062 113.736 327.463L113.536 326.898ZM-421.22 702.89C-405.681 634.871 -343.868 566.37 -250.045 502.142C-156.209 437.904 -30.2987 377.902 113.536 326.898L113.736 327.463C-30.0678 378.456 -155.927 438.438 -249.706 502.637C-343.499 566.845 -405.149 635.234 -420.635 703.024L-421.22 702.89ZM112.902 326.976C-30.9044 377.97 -156.819 437.963 -250.676 502.195C-344.547 566.435 -406.296 634.876 -421.873 702.747L-422.458 702.613C-406.828 634.513 -344.916 565.96 -251.015 501.699C-157.101 437.429 -31.1353 377.415 112.702 326.41L112.902 326.976ZM477 225.986C349.174 252.607 225.542 287.033 112.902 326.976L112.702 326.41C225.368 286.458 349.027 252.025 476.877 225.399L477 225.986ZM498.671 179.944C494.597 192.529 490.429 205.17 486.166 217.865L485.598 217.674C489.859 204.981 494.027 192.342 498.1 179.759L498.671 179.944ZM-513.472 64.0481C-301.474 20.5624 103.17 -40.6072 492.736 165.374L492.456 165.904C103.085 -39.9739 -301.381 21.1557 -513.351 64.6359L-513.472 64.0481ZM488.789 162.845C100.369 -40.5976 -302.29 20.3214 -513.552 63.6564L-513.673 63.0686C-302.384 19.7281 100.453 -41.2306 489.068 162.313L488.789 162.845ZM618.763 -338.769C599.714 -188.091 562.534 -21.9134 506.421 155.71L505.849 155.529C561.953 -22.065 599.124 -188.207 618.168 -338.844L618.763 -338.769ZM570.869 -934.497C632.694 -788.795 649.812 -584.365 618.763 -338.769L618.168 -338.844C649.21 -584.386 632.083 -788.696 570.317 -934.263L570.869 -934.497ZM445.053 -1106.79C497.866 -1065.51 539.955 -1007.35 570.869 -934.497L570.317 -934.263C539.434 -1007.04 497.401 -1065.12 444.683 -1106.32L445.053 -1106.79ZM255.517 -1177.7C328.996 -1172.32 392.336 -1147.99 445.053 -1106.79L444.683 -1106.32C392.066 -1147.44 328.84 -1171.73 255.473 -1177.1L255.517 -1177.7ZM445.797 -1106.63C393.033 -1147.87 329.48 -1172.32 255.516 -1177.7L255.559 -1178.3C329.635 -1172.91 393.304 -1148.42 446.166 -1107.1L445.797 -1106.63ZM571.577 -934.398C540.681 -1007.21 498.614 -1065.35 445.797 -1106.63L446.166 -1107.1C499.079 -1065.75 541.202 -1007.52 572.13 -934.632L571.577 -934.398ZM619.451 -338.833C650.496 -584.398 633.373 -788.763 571.577 -934.398L572.13 -934.632C633.984 -788.861 651.098 -584.376 620.046 -338.757L619.451 -338.833ZM505.598 160.4C562.557 -19.021 600.233 -186.819 619.451 -338.833L620.046 -338.757C600.823 -186.702 563.138 -18.8687 506.169 160.581L505.598 160.4ZM564.297 205.946C546.732 195.061 529.109 184.763 511.448 175.024L511.738 174.499C529.408 184.242 547.039 194.546 564.614 205.436L564.297 205.946ZM1079.19 167.068C916.333 162.802 742.499 178.034 572.952 207.625L572.849 207.033C742.428 177.437 916.302 162.201 1079.21 166.468L1079.19 167.068ZM1510.82 240.183C1386.91 194.009 1238.28 171.235 1079.19 167.068L1079.21 166.468C1238.34 170.636 1387.04 193.416 1511.03 239.62L1510.82 240.183ZM1794.03 453.561C1733.86 355.904 1634.74 286.357 1510.82 240.183L1511.03 239.62C1635.03 285.826 1734.28 355.442 1794.54 453.247L1794.03 453.561ZM1574.26 1415.7C1879.07 956.775 1914.36 648.845 1794.03 453.561L1794.54 453.247C1915.07 648.854 1879.59 957.075 1574.76 1416.04L1574.26 1415.7ZM1092.84 2308.53C1200.68 2040.46 1356.67 1743.32 1574.26 1415.7L1574.76 1416.04C1357.19 1743.62 1201.21 2040.72 1093.4 2308.75L1092.84 2308.53ZM1110.48 2323.38C1488.14 2110.38 1958.68 2110.76 2119.09 2110.89L2119.09 2111.49C1958.67 2111.36 1488.28 2110.99 1110.77 2323.9L1110.48 2323.38ZM2119.09 2110.89C2131.99 2110.9 2142.88 2110.91 2151.56 2110.8L2151.57 2111.4C2142.89 2111.51 2131.99 2111.5 2119.09 2111.49L2119.09 2110.89ZM2151.58 2112.4C2142.89 2112.51 2131.99 2112.5 2119.09 2112.49L2119.09 2111.89C2131.99 2111.9 2142.89 2111.91 2151.57 2111.8L2151.58 2112.4ZM2119.09 2112.49C1954.14 2112.36 1461.92 2111.98 1079.76 2343.18L1079.45 2342.66C1461.77 2111.37 1954.16 2111.76 2119.09 2111.89L2119.09 2112.49ZM900.376 3482.65C861.563 3187.35 896.794 2810.02 1079.19 2342.98L1079.75 2343.19C897.384 2810.16 862.173 3187.39 900.97 3482.57L900.376 3482.65ZM931.218 3647.05C918.455 3595.37 907.99 3540.59 900.376 3482.65L900.97 3482.57C908.582 3540.49 919.043 3595.25 931.801 3646.9L931.218 3647.05ZM1037.5 3700.27C1004.09 3685.16 970.934 3670.16 938.055 3655.25L938.303 3654.71C971.181 3669.62 1004.34 3684.62 1037.74 3699.73L1037.5 3700.27ZM1262.82 3802.59C1186.72 3767.78 1111.5 3733.75 1037.5 3700.27L1037.74 3699.73C1111.74 3733.2 1186.96 3767.23 1263.07 3802.05L1262.82 3802.59ZM1037.09 3700.28C1111.21 3733.81 1186.54 3767.88 1262.75 3802.75L1262.5 3803.29C1186.29 3768.43 1110.96 3734.35 1036.85 3700.83L1037.09 3700.28ZM1037.04 3700.26L1037.09 3700.28L1036.85 3700.83L1036.8 3700.81L1037.04 3700.26ZM899.096 3482.63C861.225 3194.49 893.839 2828.29 1064.82 2376.88L1065.38 2377.09C894.43 2828.42 861.835 3194.53 899.691 3482.56L899.096 3482.63ZM925.337 3627.84C914.646 3581.84 905.775 3533.45 899.096 3482.63L899.691 3482.56C906.368 3533.35 915.235 3581.72 925.922 3627.7L925.337 3627.84ZM-300.8 2922.23C-46.6958 3195.99 395.621 3408.24 908.899 3641.36L908.651 3641.91C395.406 3408.8 -47.037 3196.5 -301.24 2922.64L-300.8 2922.23ZM-172.144 1488.76C-406.546 1824.27 -516.462 2098.87 -528.906 2331.46C-541.35 2564.04 -456.339 2754.66 -300.8 2922.23L-301.24 2922.64C-456.868 2754.97 -541.96 2564.2 -529.505 2331.43C-517.052 2098.68 -407.068 1823.97 -172.635 1488.41L-172.144 1488.76ZM482.912 231.325C352.664 614.462 136.859 1046.46 -172.144 1488.76L-172.635 1488.41C136.338 1046.16 352.116 614.21 482.343 231.132L482.912 231.325ZM563.232 209.997C539.26 214.267 515.38 218.823 491.635 223.65L491.516 223.062C515.265 218.234 539.15 213.677 563.126 209.406L563.232 209.997ZM628.784 250.024C609.765 236.486 590.647 223.69 571.458 211.599L571.778 211.092C590.977 223.188 610.103 235.991 629.132 249.535L628.784 250.024ZM1332.09 498.712C1105.22 468.463 840.569 400.765 628.784 250.024L629.132 249.535C840.803 400.194 1105.35 467.874 1332.17 498.117L1332.09 498.712ZM1768.85 522.682C1684.8 523.123 1521.6 523.981 1332.09 498.712L1332.17 498.117C1521.63 523.38 1684.8 522.523 1768.85 522.082L1768.85 522.682ZM1808.43 522.665C1798.47 522.526 1785.15 522.596 1768.85 522.682L1768.85 522.082C1785.15 521.996 1798.47 521.926 1808.44 522.065L1808.43 522.665ZM1768.86 521.081C1785.15 520.996 1798.48 520.926 1808.45 521.065L1808.44 521.665C1798.48 521.526 1785.16 521.596 1768.87 521.681L1768.86 521.081ZM1768.83 521.081L1768.86 521.081L1768.86 521.681L1768.83 521.681L1768.83 521.081ZM1332.3 497.126C1521.69 522.378 1684.77 521.523 1768.83 521.081L1768.83 521.681C1684.77 522.123 1521.65 522.979 1332.22 497.721L1332.3 497.126ZM629.712 248.72C841.191 399.243 1105.55 466.892 1332.3 497.126L1332.22 497.721C1105.43 467.481 840.958 399.814 629.364 249.209L629.712 248.72ZM595.612 225.3C607.01 232.849 618.378 240.653 629.712 248.72L629.364 249.209C618.036 241.146 606.673 233.345 595.281 225.8L595.612 225.3ZM1079.24 167.664C925.058 163.626 760.988 177.086 600.026 203.68L599.928 203.088C760.921 176.488 925.03 163.025 1079.26 167.065L1079.24 167.664ZM1510.08 240.636C1386.45 194.565 1238.11 171.826 1079.24 167.664L1079.26 167.065C1238.17 171.227 1386.57 193.972 1510.29 240.074L1510.08 240.636ZM1792.8 453.676C1732.69 356.123 1633.72 286.706 1510.08 240.636L1510.29 240.074C1634.01 286.175 1733.11 355.661 1793.31 453.361L1792.8 453.676ZM1573.03 1415.48C1877.83 956.58 1913.02 648.784 1792.8 453.676L1793.31 453.361C1913.73 648.794 1878.35 956.88 1573.53 1415.81L1573.03 1415.48ZM1079.57 2338.61C1187.73 2062.67 1347.21 1755.49 1573.03 1415.48L1573.53 1415.81C1347.73 1755.79 1188.27 2062.93 1080.13 2338.83L1079.57 2338.61ZM-13.4327 2495.51C216.828 2535.66 658.483 2593.96 1074.7 2344.36L1075.01 2344.87C658.593 2594.59 216.746 2536.26 -13.5358 2496.1L-13.4327 2495.51ZM1047.43 2362.09C639.042 2593.04 211.443 2536.35 -13.7076 2497.09L-13.6046 2496.5C211.525 2535.75 638.94 2592.4 1047.14 2361.57L1047.43 2362.09ZM515.364 177.651C523.681 182.28 531.989 187.033 540.285 191.913L539.981 192.431C531.688 187.552 523.385 182.802 515.073 178.175L515.364 177.651ZM491.418 204.1C493.575 197.593 495.706 191.101 497.813 184.624L498.383 184.81C496.276 191.288 494.144 197.781 491.988 204.288L491.418 204.1ZM536.166 214.282C525.961 216.195 515.776 218.158 505.615 220.172L505.498 219.583C515.662 217.569 525.849 215.605 536.056 213.692L536.166 214.282ZM491.988 204.288C489.146 212.862 496.637 221.339 505.498 219.583L505.615 220.172C496.304 222.017 488.432 213.11 491.418 204.1L491.988 204.288ZM540.285 191.913C550.016 197.638 547.238 212.207 536.166 214.282L536.056 213.692C546.607 211.715 549.213 197.861 539.981 192.431L540.285 191.913ZM-13.5358 2496.1C-13.6343 2496.09 -13.7333 2496.15 -13.7541 2496.27L-14.3451 2496.17C-14.271 2495.74 -13.8783 2495.44 -13.4327 2495.51L-13.5358 2496.1ZM1080.13 2338.83C1079.14 2341.35 1077.33 2343.48 1075.01 2344.87L1074.7 2344.36C1076.91 2343.03 1078.63 2341.01 1079.57 2338.61L1080.13 2338.83ZM1808.64 521.868C1808.64 521.755 1808.55 521.667 1808.44 521.665L1808.45 521.065C1808.9 521.071 1809.24 521.437 1809.24 521.877L1808.64 521.868ZM925.922 3627.7C928.252 3637.72 918.025 3646.17 908.651 3641.91L908.899 3641.36C917.816 3645.41 927.556 3637.38 925.337 3627.84L925.922 3627.7ZM1064.82 2376.88C1068.78 2366.44 1057.16 2356.59 1047.43 2362.09L1047.14 2361.57C1057.35 2355.79 1069.54 2366.11 1065.38 2377.09L1064.82 2376.88ZM1263.08 3803.29C1262.89 3803.38 1262.68 3803.38 1262.5 3803.29L1262.75 3802.75C1262.78 3802.76 1262.8 3802.76 1262.82 3802.75L1263.08 3803.29ZM1263.07 3802.05C1263.61 3802.29 1263.61 3803.05 1263.08 3803.29L1262.82 3802.75C1262.89 3802.72 1262.89 3802.62 1262.82 3802.59L1263.07 3802.05ZM2152.37 2111.59C2152.38 2112.03 2152.02 2112.4 2151.58 2112.4L2151.57 2111.8C2151.68 2111.8 2151.77 2111.71 2151.77 2111.6L2152.37 2111.59ZM1093.4 2308.75C1089.23 2319.11 1100.73 2328.88 1110.48 2323.38L1110.77 2323.9C1100.56 2329.66 1088.45 2319.44 1092.84 2308.53L1093.4 2308.75ZM515.073 178.175C508.675 174.615 500.65 177.841 498.383 184.81L497.813 184.624C500.194 177.303 508.631 173.904 515.364 177.651L515.073 178.175ZM254.962 -1177.93C255.062 -1178.17 255.303 -1178.31 255.559 -1178.3L255.516 -1177.7L255.515 -1177.7L254.962 -1177.93ZM-13.7541 2496.27C-13.7749 2496.39 -13.703 2496.48 -13.6046 2496.5L-13.7076 2497.09C-14.1533 2497.01 -14.4192 2496.59 -14.3451 2496.17L-13.7541 2496.27ZM255.473 -1177.1C255.066 -1177.13 254.801 -1177.55 254.962 -1177.93L255.515 -1177.7C255.514 -1177.7 255.515 -1177.7 255.515 -1177.7C255.514 -1177.7 255.514 -1177.7 255.515 -1177.7C255.516 -1177.7 255.516 -1177.7 255.516 -1177.7C255.515 -1177.7 255.515 -1177.7 255.517 -1177.7L255.473 -1177.1ZM931.801 3646.9C932.655 3650.36 935.055 3653.24 938.303 3654.71L938.055 3655.25C934.642 3653.71 932.117 3650.69 931.218 3647.05L931.801 3646.9ZM489.068 162.313C495.56 165.714 503.645 162.507 505.849 155.529L506.421 155.71C504.101 163.054 495.602 166.413 488.789 162.845L489.068 162.313ZM2151.56 2110.8C2152 2110.8 2152.36 2111.15 2152.37 2111.59L2151.77 2111.6C2151.77 2111.49 2151.68 2111.4 2151.57 2111.4L2151.56 2110.8ZM-421.631 703.743C-422.188 703.692 -422.586 703.169 -422.458 702.613L-421.873 702.747C-421.917 702.938 -421.783 703.127 -421.577 703.146L-421.631 703.743ZM-420.635 703.024C-420.74 703.483 -421.167 703.785 -421.631 703.743L-421.577 703.146C-421.406 703.161 -421.257 703.052 -421.22 702.89L-420.635 703.024ZM-514.283 64.0105C-514.369 63.588 -514.116 63.1595 -513.673 63.0686L-513.552 63.6564C-513.65 63.6765 -513.719 63.7713 -513.695 63.8898L-514.283 64.0105ZM932.852 3658.62C931.968 3655.17 929.54 3652.24 926.295 3650.77L926.543 3650.22C929.956 3651.77 932.505 3654.85 933.433 3658.47L932.852 3658.62ZM1079.76 2343.18C1079.75 2343.18 1079.75 2343.19 1079.75 2343.19L1079.19 2342.98C1079.24 2342.85 1079.33 2342.74 1079.45 2342.66L1079.76 2343.18ZM-513.351 64.6359C-513.794 64.7267 -514.196 64.4329 -514.283 64.0105L-513.695 63.8898C-513.671 64.0083 -513.57 64.0682 -513.472 64.0481L-513.351 64.6359ZM564.614 205.436C567.071 206.959 570.001 207.531 572.849 207.033L572.952 207.625C569.959 208.147 566.88 207.546 564.297 205.946L564.614 205.436ZM563.126 209.406C566.12 208.873 569.205 209.471 571.778 211.092L571.458 211.599C569.012 210.058 566.078 209.49 563.232 209.997L563.126 209.406ZM1353.31 4300.64C1353.12 4300.7 1352.91 4300.69 1352.73 4300.58L1353.04 4300.06C1353.06 4300.08 1353.08 4300.08 1353.11 4300.07L1353.31 4300.64ZM1808.44 522.065C1808.55 522.067 1808.64 521.98 1808.64 521.868L1809.24 521.877C1809.23 522.317 1808.87 522.671 1808.43 522.665L1808.44 522.065ZM476.418 244.674C479.358 236.134 471.861 227.725 463.024 229.611L462.898 229.025C472.189 227.042 480.078 235.884 476.985 244.87L476.418 244.674ZM595.281 225.8C585.898 219.586 588.801 204.927 599.928 203.088L600.026 203.68C589.461 205.426 586.664 219.374 595.612 225.3L595.281 225.8ZM498.1 179.759C499.834 174.401 497.436 168.538 492.456 165.904L492.736 165.374C497.973 168.143 500.495 174.307 498.671 179.944L498.1 179.759ZM506.169 160.581C504.466 165.948 506.806 171.779 511.738 174.499L511.448 175.024C506.267 172.167 503.807 166.04 505.598 160.4L506.169 160.581ZM482.343 231.132C483.751 226.992 487.232 223.933 491.516 223.062L491.635 223.65C487.56 224.478 484.25 227.388 482.912 231.325L482.343 231.132ZM1353.46 4299.39C1354 4299.71 1353.84 4300.45 1353.31 4300.64L1353.11 4300.07C1353.16 4300.05 1353.19 4300.02 1353.19 4299.98C1353.19 4299.96 1353.19 4299.95 1353.19 4299.94C1353.18 4299.93 1353.17 4299.91 1353.15 4299.9L1353.46 4299.39ZM476.877 225.399C480.949 224.551 484.274 221.615 485.598 217.674L486.166 217.865C484.775 222.01 481.279 225.095 477 225.986L476.877 225.399ZM955.705 3664.1C946.78 3660.06 937.193 3668.18 939.754 3677.63L939.175 3677.79C936.481 3667.84 946.568 3659.3 955.952 3663.55L955.705 3664.1Z" fill="url(#paint1_linear_230_988)" fill-opacity="0.5" mask="url(#path-1-outside-1_230_988)"/>
</g>
<defs>
<radialGradient id="paint0_radial_230_988" cx="0" cy="0" r="1" gradientUnits="userSpaceOnUse" gradientTransform="translate(323.174 1723.8) rotate(10.2696) scale(3722.05 3431.4)">
<stop stop-color="#B9C4FF"/>
<stop offset="0.0565421" stop-color="#666BFC"/>
<stop offset="0.202377" stop-color="#BDEAFF"/>
<stop offset="0.239583" stop-color="#C4F4FF"/>
<stop offset="0.375" stop-color="#95B3FF"/>
<stop offset="0.875" stop-color="#666BFC"/>
<stop offset="0.90625" stop-color="#B9C4FF"/>
</radialGradient>
<linearGradient id="paint1_linear_230_988" x1="126.014" y1="-830.9" x2="2019.65" y2="5058.04" gradientUnits="userSpaceOnUse">
<stop stop-color="#94F4E9" stop-opacity="0"/>
<stop offset="0.374254" stop-color="#91F4E8" stop-opacity="0.39"/>
<stop offset="1" stop-color="white" stop-opacity="0.6"/>
</linearGradient>
<clipPath id="clip0_230_988">
<rect width="960" height="1280" fill="white"/>
</clipPath>
</defs>
</svg>
