<svg width="960" height="1280" viewBox="0 0 960 1280" fill="none" xmlns="http://www.w3.org/2000/svg">
<g clip-path="url(#clip0_230_982)">
<mask id="path-1-outside-1_230_982" maskUnits="userSpaceOnUse" x="-2614.83" y="-2389" width="4601.14" height="4601.14" fill="black">
<rect fill="white" x="-2614.83" y="-2389" width="4601.14" height="4601.14"/>
<path fill-rule="evenodd" clip-rule="evenodd" d="M1478.27 331.422C1507.96 301.54 1535.05 274.28 1559.32 251.459C1559.52 251.27 1559.53 250.955 1559.34 250.753V250.753C1559.15 250.552 1558.83 250.541 1558.63 250.73C1534.33 273.587 1507.21 300.875 1477.5 330.776C1386.9 421.947 1272.16 537.415 1139.39 625.655C1022.76 703.168 892.276 759.629 752.104 760.121C749.006 760.132 746.129 758.517 744.501 755.881C736.437 742.823 728.321 729.535 720.152 716.017C718.082 712.591 718.531 708.211 721.236 705.259C793.391 626.504 858.733 540.118 914.687 456.054C1010.22 312.533 1078.45 175.692 1106.55 94.9873C1106.67 94.6626 1106.34 94.3712 1106.02 94.4929V94.4929C1105.91 94.5354 1105.82 94.6215 1105.78 94.7352C1077.86 175.235 1009.58 312.295 913.875 456.085C858.935 538.624 794.976 623.349 724.439 700.853C720.403 705.289 713.254 704.576 710.172 699.431C615.387 541.257 513.504 352.579 403.292 135.284C401.102 130.965 402.723 125.667 406.951 123.306C502.324 70.0569 579.178 18.0404 625.034 -20.4141C625.297 -20.6351 625.173 -21.0547 624.835 -21.115V-21.115C624.716 -21.136 624.597 -21.1055 624.505 -21.0281C578.951 17.2658 502.363 69.1736 407.212 122.367C402.76 124.856 397.134 123.131 394.832 118.58C360.529 50.7555 325.423 -19.8149 289.476 -93.0756C87.9891 -503.711 -74.3827 -692.235 -292.714 -738.491C-443.386 -770.413 -620.691 -734.575 -855.808 -657.292C-861.504 -655.419 -867.468 -659.587 -867.712 -665.578C-885.368 -1098.22 -977.256 -1394.3 -1089.49 -1594.2C-1227.73 -1840.42 -1396.86 -1940.72 -1496.2 -1970.5C-1496.31 -1970.54 -1496.43 -1970.52 -1496.52 -1970.45V-1970.45C-1496.81 -1970.27 -1496.76 -1969.84 -1496.44 -1969.74C-1397.27 -1939.81 -1228.65 -1839.53 -1090.72 -1593.86C-978.039 -1393.18 -885.857 -1095.48 -868.758 -659.903C-868.601 -655.904 -871.101 -652.235 -874.897 -650.969C-975.449 -617.419 -1086.45 -576.613 -1210.24 -530.528C-1210.34 -530.489 -1210.43 -530.405 -1210.47 -530.299V-530.299C-1210.58 -529.989 -1210.28 -529.69 -1209.97 -529.805C-1088.29 -575.102 -978.989 -615.285 -879.84 -648.477C-874.152 -650.382 -868.244 -646.281 -868.042 -640.286C-864.889 -546.883 -865.16 -447.231 -869.379 -340.937C-871.913 -277.093 -870.727 -218.492 -866.166 -164.793C-865.452 -156.379 -875.706 -151.438 -881.816 -157.268C-983.605 -254.39 -1081.19 -326.086 -1172.12 -378.316C-1416.98 -518.96 -1613.61 -518.467 -1714.18 -493.154C-1714.3 -493.125 -1714.39 -493.049 -1714.44 -492.943V-492.943C-1714.59 -492.639 -1714.33 -492.296 -1714 -492.378C-1613.5 -517.468 -1417.31 -517.728 -1173.01 -377.402C-1077.08 -322.301 -973.732 -245.525 -865.854 -140.071C-864.367 -138.618 -863.423 -136.659 -863.191 -134.594C-842.574 48.5929 -780.663 171.407 -692.79 249.004C-670.041 269.093 -645.551 286.152 -619.587 300.444C-614.797 303.08 -613.292 309.312 -616.513 313.73C-758.919 509.049 -974.921 633.537 -1053.47 678.808C-1060.36 682.777 -1066.19 686.138 -1070.82 688.884C-1071.06 689.024 -1071.14 689.331 -1070.99 689.568V689.568C-1070.85 689.806 -1070.55 689.884 -1070.31 689.743C-1065.7 687.01 -1059.9 683.665 -1053.04 679.715L-1052.97 679.674C-974.15 634.25 -756.651 508.908 -614.122 312.139C-611.493 308.511 -606.61 307.322 -602.591 309.304C-565.192 327.745 -524.989 340.824 -482.722 349.271C-480.287 349.758 -478.152 351.207 -476.826 353.307C-431.705 424.769 -386.398 501.944 -341.082 585.26C-313.251 636.428 -284.998 682.268 -256.414 723.141C-253.198 727.739 -254.87 734.139 -259.933 736.558C-291.228 751.511 -323.296 767.758 -356.375 785.183C-356.619 785.312 -356.713 785.614 -356.585 785.858V785.858C-356.456 786.103 -356.153 786.196 -355.909 786.068C-321.743 768.07 -288.662 751.333 -256.4 735.982C-252.472 734.112 -247.75 735.378 -245.198 738.901C-129.038 899.275 -7.65333 978.847 112.786 1001.46C266.856 1030.38 419.415 966.08 557.468 858.441C596.24 828.211 633.859 794.569 670.038 758.626C672.061 756.616 674.911 755.679 677.735 756.074C699.125 759.072 720.316 760.692 741.294 761.05C744.386 761.102 747.256 762.717 748.886 765.345C820.723 881.094 888.414 978.413 952.527 1056.43C1045.74 1169.84 1131.4 1242.48 1211.28 1271.61C1291.06 1300.7 1365.23 1286.44 1435.48 1225.73C1435.57 1225.64 1435.61 1225.51 1435.56 1225.39V1225.39C1435.48 1225.2 1435.24 1225.14 1435.08 1225.28C1365.52 1285.32 1291.77 1299.68 1212.06 1270.61C1132.26 1241.51 1046.64 1168.93 953.437 1055.52C891.272 979.88 825.743 886.084 756.33 774.93C752.584 768.931 756.927 761.131 763.997 760.947C899.913 757.412 1026.52 701.871 1139.94 626.488C1272.81 538.185 1387.66 422.602 1478.27 331.422ZM-605.412 298.141C-607.978 301.833 -612.897 303.024 -616.845 300.874C-643.398 286.418 -668.425 269.079 -691.641 248.577C-775.606 174.431 -835.879 58.921 -859.003 -111.246C-860.143 -119.637 -850.137 -124.56 -844.173 -118.549C-753.304 -26.9715 -659.389 85.061 -564.12 221.666C-562.143 224.501 -561.966 228.229 -563.645 231.249C-563.69 231.33 -563.734 231.41 -563.779 231.491C-576.566 254.517 -590.531 276.737 -605.412 298.141ZM-557.15 231.7C-558.582 229.63 -561.683 229.776 -562.905 231.976V231.976C-575.279 254.258 -588.754 275.785 -603.093 296.549C-606.199 301.047 -604.693 307.276 -599.779 309.671C-568.293 325.016 -534.841 336.576 -499.864 344.787C-492.177 346.592 -486.405 338.201 -490.668 331.554C-512.885 296.909 -535.053 263.642 -557.15 231.7ZM-568.376 213.355C-564.57 218.78 -556.359 218.366 -552.985 212.663C-404.067 -39.0663 -155.253 -142.283 -21.3187 -191.55C-21.0595 -191.645 -20.7844 -191.508 -20.6892 -191.249V-191.249C-20.5939 -190.989 -20.7145 -190.707 -20.9736 -190.611C-156.265 -140.845 -408.566 -36.0919 -556.725 221.051C-558.451 224.048 -558.296 227.803 -556.328 230.647C-530.906 267.388 -505.391 305.883 -479.814 346.21C-478.483 348.31 -476.347 349.771 -473.903 350.223C-399.897 363.901 -319.803 363.649 -237.553 353.363C-64.3316 331.702 118.602 265.519 274.582 190.999C315.232 171.578 354.045 151.594 390.37 131.689C394.618 129.361 396.24 124.083 394.054 119.761C359.698 51.8344 324.535 -18.8475 288.529 -92.2278C87.0421 -502.864 -75.2821 -691.264 -293.451 -737.486C-444.968 -769.587 -623.438 -733.118 -860.756 -654.821C-864.557 -653.567 -867.106 -649.939 -866.965 -645.939C-863.615 -550.957 -863.813 -449.488 -868.115 -341.118C-871.022 -267.878 -869.031 -201.546 -862.669 -141.601C-862.45 -139.534 -861.522 -137.621 -860.04 -136.163C-765.606 -43.2112 -667.744 71.7354 -568.376 213.355ZM686.692 741.816C681.528 747.11 684.515 756.023 691.863 756.851C704.421 758.266 716.91 759.21 729.325 759.707C736.405 759.99 740.784 752.25 737.077 746.211C732.062 738.042 727.027 729.785 721.972 721.439C718.867 716.313 711.714 715.58 707.613 719.949C700.698 727.315 693.723 734.607 686.692 741.816ZM557.215 857.878C592.434 830.419 626.706 800.132 659.814 767.851C665.103 762.694 662.18 753.708 654.917 752.363C613.535 744.696 571.434 731.787 528.712 712.815C356.887 636.512 215.023 613.063 76.4382 629.584C-26.7161 641.881 -128.079 676.326 -238.656 727.641C-243.752 730.006 -245.403 736.461 -242.092 741.001C-126.607 899.375 -6.02911 978.053 113.554 1000.5C267.42 1029.38 419.604 965.172 557.215 857.878ZM76.3197 628.591C-27.9483 641.021 -130.36 676.045 -242.215 728.194C-246.157 730.032 -250.865 728.816 -253.369 725.259C-282.651 683.657 -311.591 636.851 -340.088 584.457C-382.171 507.086 -424.246 435.01 -466.172 367.886C-470.342 361.211 -464.555 352.65 -456.775 353.842C-387.632 364.435 -313.559 363.473 -237.624 353.977C-63.9946 332.264 119.223 265.953 275.295 191.388C315.579 172.142 354.061 152.343 390.111 132.615C394.582 130.167 400.207 131.915 402.513 136.461C513.726 355.719 616.461 545.836 711.981 704.874C714.043 708.307 713.585 712.673 710.854 715.602C699.591 727.683 688.168 739.568 676.595 751.222C674.585 753.246 671.728 754.192 668.91 753.747C623.166 746.527 576.524 732.953 529.118 711.901C357.165 635.541 215.12 612.044 76.3197 628.591Z"/>
</mask>
<path fill-rule="evenodd" clip-rule="evenodd" d="M1478.27 331.422C1507.96 301.54 1535.05 274.28 1559.32 251.459C1559.52 251.27 1559.53 250.955 1559.34 250.753V250.753C1559.15 250.552 1558.83 250.541 1558.63 250.73C1534.33 273.587 1507.21 300.875 1477.5 330.776C1386.9 421.947 1272.16 537.415 1139.39 625.655C1022.76 703.168 892.276 759.629 752.104 760.121C749.006 760.132 746.129 758.517 744.501 755.881C736.437 742.823 728.321 729.535 720.152 716.017C718.082 712.591 718.531 708.211 721.236 705.259C793.391 626.504 858.733 540.118 914.687 456.054C1010.22 312.533 1078.45 175.692 1106.55 94.9873C1106.67 94.6626 1106.34 94.3712 1106.02 94.4929V94.4929C1105.91 94.5354 1105.82 94.6215 1105.78 94.7352C1077.86 175.235 1009.58 312.295 913.875 456.085C858.935 538.624 794.976 623.349 724.439 700.853C720.403 705.289 713.254 704.576 710.172 699.431C615.387 541.257 513.504 352.579 403.292 135.284C401.102 130.965 402.723 125.667 406.951 123.306C502.324 70.0569 579.178 18.0404 625.034 -20.4141C625.297 -20.6351 625.173 -21.0547 624.835 -21.115V-21.115C624.716 -21.136 624.597 -21.1055 624.505 -21.0281C578.951 17.2658 502.363 69.1736 407.212 122.367C402.76 124.856 397.134 123.131 394.832 118.58C360.529 50.7555 325.423 -19.8149 289.476 -93.0756C87.9891 -503.711 -74.3827 -692.235 -292.714 -738.491C-443.386 -770.413 -620.691 -734.575 -855.808 -657.292C-861.504 -655.419 -867.468 -659.587 -867.712 -665.578C-885.368 -1098.22 -977.256 -1394.3 -1089.49 -1594.2C-1227.73 -1840.42 -1396.86 -1940.72 -1496.2 -1970.5C-1496.31 -1970.54 -1496.43 -1970.52 -1496.52 -1970.45V-1970.45C-1496.81 -1970.27 -1496.76 -1969.84 -1496.44 -1969.74C-1397.27 -1939.81 -1228.65 -1839.53 -1090.72 -1593.86C-978.039 -1393.18 -885.857 -1095.48 -868.758 -659.903C-868.601 -655.904 -871.101 -652.235 -874.897 -650.969C-975.449 -617.419 -1086.45 -576.613 -1210.24 -530.528C-1210.34 -530.489 -1210.43 -530.405 -1210.47 -530.299V-530.299C-1210.58 -529.989 -1210.28 -529.69 -1209.97 -529.805C-1088.29 -575.102 -978.989 -615.285 -879.84 -648.477C-874.152 -650.382 -868.244 -646.281 -868.042 -640.286C-864.889 -546.883 -865.16 -447.231 -869.379 -340.937C-871.913 -277.093 -870.727 -218.492 -866.166 -164.793C-865.452 -156.379 -875.706 -151.438 -881.816 -157.268C-983.605 -254.39 -1081.19 -326.086 -1172.12 -378.316C-1416.98 -518.96 -1613.61 -518.467 -1714.18 -493.154C-1714.3 -493.125 -1714.39 -493.049 -1714.44 -492.943V-492.943C-1714.59 -492.639 -1714.33 -492.296 -1714 -492.378C-1613.5 -517.468 -1417.31 -517.728 -1173.01 -377.402C-1077.08 -322.301 -973.732 -245.525 -865.854 -140.071C-864.367 -138.618 -863.423 -136.659 -863.191 -134.594C-842.574 48.5929 -780.663 171.407 -692.79 249.004C-670.041 269.093 -645.551 286.152 -619.587 300.444C-614.797 303.08 -613.292 309.312 -616.513 313.73C-758.919 509.049 -974.921 633.537 -1053.47 678.808C-1060.36 682.777 -1066.19 686.138 -1070.82 688.884C-1071.06 689.024 -1071.14 689.331 -1070.99 689.568V689.568C-1070.85 689.806 -1070.55 689.884 -1070.31 689.743C-1065.7 687.01 -1059.9 683.665 -1053.04 679.715L-1052.97 679.674C-974.15 634.25 -756.651 508.908 -614.122 312.139C-611.493 308.511 -606.61 307.322 -602.591 309.304C-565.192 327.745 -524.989 340.824 -482.722 349.271C-480.287 349.758 -478.152 351.207 -476.826 353.307C-431.705 424.769 -386.398 501.944 -341.082 585.26C-313.251 636.428 -284.998 682.268 -256.414 723.141C-253.198 727.739 -254.87 734.139 -259.933 736.558C-291.228 751.511 -323.296 767.758 -356.375 785.183C-356.619 785.312 -356.713 785.614 -356.585 785.858V785.858C-356.456 786.103 -356.153 786.196 -355.909 786.068C-321.743 768.07 -288.662 751.333 -256.4 735.982C-252.472 734.112 -247.75 735.378 -245.198 738.901C-129.038 899.275 -7.65333 978.847 112.786 1001.46C266.856 1030.38 419.415 966.08 557.468 858.441C596.24 828.211 633.859 794.569 670.038 758.626C672.061 756.616 674.911 755.679 677.735 756.074C699.125 759.072 720.316 760.692 741.294 761.05C744.386 761.102 747.256 762.717 748.886 765.345C820.723 881.094 888.414 978.413 952.527 1056.43C1045.74 1169.84 1131.4 1242.48 1211.28 1271.61C1291.06 1300.7 1365.23 1286.44 1435.48 1225.73C1435.57 1225.64 1435.61 1225.51 1435.56 1225.39V1225.39C1435.48 1225.2 1435.24 1225.14 1435.08 1225.28C1365.52 1285.32 1291.77 1299.68 1212.06 1270.61C1132.26 1241.51 1046.64 1168.93 953.437 1055.52C891.272 979.88 825.743 886.084 756.33 774.93C752.584 768.931 756.927 761.131 763.997 760.947C899.913 757.412 1026.52 701.871 1139.94 626.488C1272.81 538.185 1387.66 422.602 1478.27 331.422ZM-605.412 298.141C-607.978 301.833 -612.897 303.024 -616.845 300.874C-643.398 286.418 -668.425 269.079 -691.641 248.577C-775.606 174.431 -835.879 58.921 -859.003 -111.246C-860.143 -119.637 -850.137 -124.56 -844.173 -118.549C-753.304 -26.9715 -659.389 85.061 -564.12 221.666C-562.143 224.501 -561.966 228.229 -563.645 231.249C-563.69 231.33 -563.734 231.41 -563.779 231.491C-576.566 254.517 -590.531 276.737 -605.412 298.141ZM-557.15 231.7C-558.582 229.63 -561.683 229.776 -562.905 231.976V231.976C-575.279 254.258 -588.754 275.785 -603.093 296.549C-606.199 301.047 -604.693 307.276 -599.779 309.671C-568.293 325.016 -534.841 336.576 -499.864 344.787C-492.177 346.592 -486.405 338.201 -490.668 331.554C-512.885 296.909 -535.053 263.642 -557.15 231.7ZM-568.376 213.355C-564.57 218.78 -556.359 218.366 -552.985 212.663C-404.067 -39.0663 -155.253 -142.283 -21.3187 -191.55C-21.0595 -191.645 -20.7844 -191.508 -20.6892 -191.249V-191.249C-20.5939 -190.989 -20.7145 -190.707 -20.9736 -190.611C-156.265 -140.845 -408.566 -36.0919 -556.725 221.051C-558.451 224.048 -558.296 227.803 -556.328 230.647C-530.906 267.388 -505.391 305.883 -479.814 346.21C-478.483 348.31 -476.347 349.771 -473.903 350.223C-399.897 363.901 -319.803 363.649 -237.553 353.363C-64.3316 331.702 118.602 265.519 274.582 190.999C315.232 171.578 354.045 151.594 390.37 131.689C394.618 129.361 396.24 124.083 394.054 119.761C359.698 51.8344 324.535 -18.8475 288.529 -92.2278C87.0421 -502.864 -75.2821 -691.264 -293.451 -737.486C-444.968 -769.587 -623.438 -733.118 -860.756 -654.821C-864.557 -653.567 -867.106 -649.939 -866.965 -645.939C-863.615 -550.957 -863.813 -449.488 -868.115 -341.118C-871.022 -267.878 -869.031 -201.546 -862.669 -141.601C-862.45 -139.534 -861.522 -137.621 -860.04 -136.163C-765.606 -43.2112 -667.744 71.7354 -568.376 213.355ZM686.692 741.816C681.528 747.11 684.515 756.023 691.863 756.851C704.421 758.266 716.91 759.21 729.325 759.707C736.405 759.99 740.784 752.25 737.077 746.211C732.062 738.042 727.027 729.785 721.972 721.439C718.867 716.313 711.714 715.58 707.613 719.949C700.698 727.315 693.723 734.607 686.692 741.816ZM557.215 857.878C592.434 830.419 626.706 800.132 659.814 767.851C665.103 762.694 662.18 753.708 654.917 752.363C613.535 744.696 571.434 731.787 528.712 712.815C356.887 636.512 215.023 613.063 76.4382 629.584C-26.7161 641.881 -128.079 676.326 -238.656 727.641C-243.752 730.006 -245.403 736.461 -242.092 741.001C-126.607 899.375 -6.02911 978.053 113.554 1000.5C267.42 1029.38 419.604 965.172 557.215 857.878ZM76.3197 628.591C-27.9483 641.021 -130.36 676.045 -242.215 728.194C-246.157 730.032 -250.865 728.816 -253.369 725.259C-282.651 683.657 -311.591 636.851 -340.088 584.457C-382.171 507.086 -424.246 435.01 -466.172 367.886C-470.342 361.211 -464.555 352.65 -456.775 353.842C-387.632 364.435 -313.559 363.473 -237.624 353.977C-63.9946 332.264 119.223 265.953 275.295 191.388C315.579 172.142 354.061 152.343 390.111 132.615C394.582 130.167 400.207 131.915 402.513 136.461C513.726 355.719 616.461 545.836 711.981 704.874C714.043 708.307 713.585 712.673 710.854 715.602C699.591 727.683 688.168 739.568 676.595 751.222C674.585 753.246 671.728 754.192 668.91 753.747C623.166 746.527 576.524 732.953 529.118 711.901C357.165 635.541 215.12 612.044 76.3197 628.591Z" fill="url(#paint0_radial_230_982)" fill-opacity="0.3"/>
<path d="M1478.27 331.422L1478.48 331.633L1478.48 331.633L1478.27 331.422ZM1477.5 330.776L1477.29 330.564L1477.29 330.564L1477.5 330.776ZM1139.39 625.655L1139.55 625.905L1139.55 625.905L1139.39 625.655ZM914.687 456.054L914.937 456.221L914.937 456.221L914.687 456.054ZM913.875 456.085L914.125 456.251L914.125 456.251L913.875 456.085ZM289.476 -93.0756L289.207 -92.9434L289.207 -92.9434L289.476 -93.0756ZM-292.714 -738.491L-292.652 -738.785L-292.652 -738.785L-292.714 -738.491ZM-1089.49 -1594.2L-1089.75 -1594.05L-1089.75 -1594.05L-1089.49 -1594.2ZM-1090.72 -1593.86L-1090.45 -1594.01L-1090.45 -1594.01L-1090.72 -1593.86ZM-869.379 -340.937L-869.679 -340.949L-869.679 -340.949L-869.379 -340.937ZM-1172.12 -378.316L-1172.27 -378.056L-1172.27 -378.056L-1172.12 -378.316ZM-1173.01 -377.402L-1172.86 -377.663L-1172.86 -377.663L-1173.01 -377.402ZM-692.79 249.004L-692.989 249.229L-692.989 249.229L-692.79 249.004ZM-1053.47 678.808L-1053.32 679.068L-1053.32 679.068L-1053.47 678.808ZM-1053.04 679.715L-1053.19 679.455L-1053.19 679.455L-1053.04 679.715ZM-1052.97 679.674L-1052.82 679.934L-1052.82 679.935L-1052.97 679.674ZM-341.082 585.26L-341.345 585.403L-341.345 585.403L-341.082 585.26ZM112.786 1001.46L112.841 1001.16L112.841 1001.16L112.786 1001.46ZM557.468 858.441L557.283 858.205L557.283 858.205L557.468 858.441ZM952.527 1056.43L952.759 1056.24L952.759 1056.24L952.527 1056.43ZM1211.28 1271.61L1211.18 1271.89L1211.18 1271.89L1211.28 1271.61ZM1212.06 1270.61L1211.96 1270.9L1211.96 1270.9L1212.06 1270.61ZM953.437 1055.52L953.206 1055.71L953.206 1055.71L953.437 1055.52ZM1139.94 626.488L1140.11 626.738L1140.11 626.738L1139.94 626.488ZM-691.641 248.577L-691.443 248.352L-691.443 248.352L-691.641 248.577ZM-563.779 231.491L-564.041 231.345L-564.041 231.345L-563.779 231.491ZM-237.553 353.363L-237.59 353.066L-237.59 353.066L-237.553 353.363ZM274.582 190.999L274.452 190.728L274.452 190.728L274.582 190.999ZM288.529 -92.2278L288.799 -92.36L288.799 -92.36L288.529 -92.2278ZM-293.451 -737.486L-293.513 -737.193L-293.513 -737.193L-293.451 -737.486ZM-868.115 -341.118L-867.815 -341.106L-867.815 -341.106L-868.115 -341.118ZM557.215 857.878L557.4 858.115L557.4 858.115L557.215 857.878ZM528.712 712.815L528.834 712.541L528.834 712.541L528.712 712.815ZM76.4382 629.584L76.4737 629.881L76.4737 629.881L76.4382 629.584ZM113.554 1000.5L113.498 1000.8L113.498 1000.8L113.554 1000.5ZM76.3197 628.591L76.2842 628.293L76.2842 628.293L76.3197 628.591ZM-340.088 584.457L-340.352 584.6L-340.352 584.6L-340.088 584.457ZM-237.624 353.977L-237.587 354.274L-237.587 354.274L-237.624 353.977ZM275.295 191.388L275.165 191.118L275.165 191.118L275.295 191.388ZM529.118 711.901L529.24 711.627L529.24 711.627L529.118 711.901ZM711.981 704.874L712.238 704.72L711.981 704.874ZM710.854 715.602L710.634 715.398L710.854 715.602ZM-466.172 367.886L-465.918 367.727L-466.172 367.886ZM-456.775 353.842L-456.73 353.546L-456.775 353.842ZM-242.215 728.194L-242.088 728.466L-242.215 728.194ZM-253.369 725.259L-253.124 725.086L-253.369 725.259ZM-238.656 727.641L-238.529 727.913L-238.656 727.641ZM-242.092 741.001L-241.85 740.824L-242.092 741.001ZM659.814 767.851L659.604 767.636L659.814 767.851ZM654.917 752.363L654.862 752.658L654.917 752.363ZM721.972 721.439L722.228 721.284L721.972 721.439ZM707.613 719.949L707.394 719.744L707.613 719.949ZM691.863 756.851L691.829 757.149L691.863 756.851ZM686.692 741.816L686.477 741.607L686.692 741.816ZM737.077 746.211L737.332 746.054L737.077 746.211ZM-862.669 -141.601L-862.968 -141.57L-862.669 -141.601ZM-860.04 -136.163L-860.251 -135.949L-860.04 -136.163ZM-860.756 -654.821L-860.85 -655.106L-860.756 -654.821ZM-866.965 -645.939L-866.666 -645.95L-866.965 -645.939ZM390.37 131.689L390.514 131.952L390.37 131.689ZM394.054 119.761L393.787 119.897L394.054 119.761ZM-552.985 212.663L-552.727 212.816L-552.727 212.816L-552.985 212.663ZM-568.376 213.355L-568.622 213.528L-568.376 213.355ZM-564.12 221.666L-564.366 221.838L-564.12 221.666ZM-563.645 231.249L-563.907 231.104L-563.645 231.249ZM1435.48 1225.73L1435.67 1225.96L1435.48 1225.73ZM741.294 761.05L741.299 760.75L741.294 761.05ZM748.886 765.345L749.141 765.186L748.886 765.345ZM670.038 758.626L670.249 758.838L670.038 758.626ZM677.735 756.074L677.776 755.777L677.735 756.074ZM-355.909 786.068L-355.769 786.333L-355.909 786.068ZM-356.375 785.183L-356.235 785.448L-356.235 785.448L-356.375 785.183ZM-256.414 723.141L-256.66 723.313L-256.414 723.141ZM-259.933 736.558L-259.804 736.829L-259.933 736.558ZM-482.722 349.271L-482.663 348.977L-482.722 349.271ZM-476.826 353.307L-477.08 353.467L-476.826 353.307ZM-614.122 312.139L-613.879 312.315L-614.122 312.139ZM-602.591 309.304L-602.459 309.034L-602.459 309.034L-602.591 309.304ZM-1070.31 689.743L-1070.16 690.001L-1070.31 689.743ZM-1070.82 688.884L-1070.97 688.625L-1070.82 688.884ZM-865.854 -140.071L-866.063 -139.856L-865.854 -140.071ZM-863.191 -134.594L-863.489 -134.56L-863.191 -134.594ZM-1714.18 -493.154L-1714.26 -493.445L-1714.18 -493.154ZM-479.814 346.21L-479.561 346.05L-479.814 346.21ZM-473.903 350.223L-473.848 349.928L-473.903 350.223ZM-879.84 -648.477L-879.936 -648.762L-879.84 -648.477ZM-868.042 -640.286L-868.342 -640.276L-868.042 -640.286ZM-20.9736 -190.611L-21.0772 -190.893L-20.9736 -190.611ZM-1210.24 -530.528L-1210.13 -530.247L-1210.24 -530.528ZM-499.864 344.787L-499.796 344.495L-499.864 344.787ZM-490.668 331.554L-490.92 331.716L-490.668 331.554ZM-1496.44 -1969.74L-1496.35 -1970.03L-1496.44 -1969.74ZM-603.093 296.549L-602.846 296.72L-603.093 296.549ZM-599.779 309.671L-599.648 309.402L-599.779 309.671ZM-1496.2 -1970.5L-1496.11 -1970.79L-1496.2 -1970.5ZM-557.15 231.7L-557.397 231.871L-557.15 231.7ZM-855.808 -657.292L-855.714 -657.007L-855.808 -657.292ZM-867.712 -665.578L-867.413 -665.591L-867.712 -665.578ZM-859.003 -111.246L-858.706 -111.286L-859.003 -111.246ZM-844.173 -118.549L-844.386 -118.338L-844.173 -118.549ZM407.212 122.367L407.066 122.105L407.212 122.367ZM394.832 118.58L394.564 118.715L394.832 118.58ZM624.505 -21.0281L624.312 -21.2578L624.505 -21.0281ZM-619.587 300.444L-619.442 300.181L-619.587 300.444ZM-616.513 313.73L-616.755 313.553L-616.513 313.73ZM403.292 135.284L403.025 135.42L403.292 135.284ZM406.951 123.306L406.805 123.044L406.951 123.306ZM1105.78 94.7352L1105.5 94.6368L1105.78 94.7352ZM-1714 -492.378L-1714.08 -492.669L-1714 -492.378ZM1435.08 1225.28L1435.28 1225.5L1435.08 1225.28ZM1106.55 94.9873L1106.27 94.8887L1106.55 94.9873ZM720.152 716.017L719.896 716.172L720.152 716.017ZM-616.845 300.874L-616.702 300.611L-616.845 300.874ZM-605.412 298.141L-605.165 298.312L-605.412 298.141ZM625.034 -20.4141L624.841 -20.644L625.034 -20.4141ZM-556.725 221.051L-556.984 220.901L-556.725 221.051ZM-556.328 230.647L-556.574 230.818L-556.328 230.647ZM-1209.97 -529.805L-1210.07 -530.086L-1209.97 -529.805ZM676.595 751.222L676.382 751.01L676.595 751.222ZM668.91 753.747L668.863 754.044L668.91 753.747ZM1558.63 250.73L1558.84 250.949L1558.63 250.73ZM-866.166 -164.793L-865.867 -164.818L-866.166 -164.793ZM-881.816 -157.268L-881.609 -157.485L-881.816 -157.268ZM752.104 760.121L752.103 759.821L752.104 760.121ZM744.501 755.881L744.246 756.039L744.501 755.881ZM756.33 774.93L756.584 774.771L756.33 774.93ZM763.997 760.947L763.989 760.647L763.997 760.947ZM724.439 700.853L724.218 700.651L724.439 700.853ZM710.172 699.431L709.914 699.585L710.172 699.431ZM-21.3187 -191.55L-21.4223 -191.831L-21.3187 -191.55ZM-868.758 -659.903L-868.458 -659.915L-868.758 -659.903ZM-874.897 -650.969L-874.992 -651.253L-874.897 -650.969ZM-256.4 735.982L-256.271 736.252L-256.4 735.982ZM-245.198 738.901L-245.441 739.077L-245.198 738.901ZM390.111 132.615L389.967 132.351L390.111 132.615ZM402.513 136.461L402.245 136.597L402.513 136.461ZM1559.32 251.459L1559.11 251.24L1559.32 251.459ZM1559.52 251.677C1535.26 274.494 1508.18 301.751 1478.48 331.633L1478.06 331.21C1507.75 301.33 1534.84 274.065 1559.11 251.24L1559.52 251.677ZM1477.29 330.564C1507 300.664 1534.12 273.373 1558.43 250.512L1558.84 250.949C1534.54 273.801 1507.43 301.085 1477.71 330.987L1477.29 330.564ZM1139.22 625.405C1271.96 537.184 1386.69 421.739 1477.29 330.564L1477.71 330.987C1387.12 422.156 1272.35 537.645 1139.55 625.905L1139.22 625.405ZM752.103 759.821C892.194 759.329 1022.62 702.9 1139.22 625.405L1139.55 625.905C1022.9 703.435 892.358 759.928 752.105 760.421L752.103 759.821ZM720.409 715.862C728.578 729.379 736.693 742.667 744.756 755.723L744.246 756.039C736.181 742.98 728.065 729.691 719.896 716.172L720.409 715.862ZM914.937 456.221C858.976 540.294 793.625 626.694 721.457 705.462L721.014 705.057C793.158 626.315 858.49 539.941 914.437 455.888L914.937 456.221ZM1106.84 95.086C1078.72 175.821 1010.48 312.685 914.937 456.221L914.437 455.888C1009.96 312.38 1078.18 175.562 1106.27 94.8887L1106.84 95.086ZM913.625 455.919C1009.33 312.143 1077.58 175.106 1105.5 94.6368L1106.07 94.8335C1078.13 175.365 1009.84 312.448 914.125 456.251L913.625 455.919ZM724.218 700.651C794.742 623.16 858.692 538.447 913.625 455.919L914.125 456.251C859.179 538.8 795.209 623.538 724.661 701.055L724.218 700.651ZM403.56 135.148C513.77 352.44 615.649 541.111 710.429 699.277L709.914 699.585C615.125 541.403 513.239 352.719 403.025 135.42L403.56 135.148ZM625.227 -20.1843C579.352 18.2865 502.479 70.3134 407.097 123.568L406.805 123.044C502.168 69.8004 579.005 17.7942 624.841 -20.644L625.227 -20.1843ZM407.066 122.105C502.207 68.9171 578.777 17.0198 624.312 -21.2578L624.698 -20.7985C579.124 17.5118 502.519 69.43 407.359 122.629L407.066 122.105ZM289.745 -93.2077C325.692 -19.948 360.798 50.6214 395.1 118.444L394.564 118.715C360.261 50.8897 325.154 -19.6818 289.207 -92.9434L289.745 -93.2077ZM-292.652 -738.785C-74.1668 -692.496 88.2595 -503.841 289.745 -93.2077L289.207 -92.9434C87.7188 -503.581 -74.5985 -691.974 -292.776 -738.198L-292.652 -738.785ZM-855.901 -657.577C-620.782 -734.861 -443.409 -770.725 -292.652 -738.785L-292.776 -738.198C-443.363 -770.101 -620.6 -734.289 -855.714 -657.007L-855.901 -657.577ZM-1089.23 -1594.34C-976.966 -1394.4 -885.07 -1098.27 -867.413 -665.591L-868.012 -665.566C-885.666 -1098.17 -977.546 -1394.2 -1089.75 -1594.05L-1089.23 -1594.34ZM-1496.11 -1970.79C-1396.69 -1940.99 -1227.51 -1840.63 -1089.23 -1594.34L-1089.75 -1594.05C-1227.96 -1840.21 -1397.03 -1940.46 -1496.28 -1970.22L-1496.11 -1970.79ZM-1090.98 -1593.72C-1228.87 -1839.32 -1397.44 -1939.55 -1496.53 -1969.46L-1496.35 -1970.03C-1397.11 -1940.07 -1228.42 -1839.74 -1090.45 -1594.01L-1090.98 -1593.72ZM-869.057 -659.891C-886.156 -1095.44 -978.328 -1393.08 -1090.98 -1593.72L-1090.45 -1594.01C-977.749 -1393.27 -885.559 -1095.53 -868.458 -659.915L-869.057 -659.891ZM-1210.34 -530.809C-1086.55 -576.894 -975.55 -617.702 -874.992 -651.253L-874.802 -650.684C-975.349 -617.136 -1086.34 -576.332 -1210.13 -530.247L-1210.34 -530.809ZM-879.745 -648.193C-978.889 -615.002 -1088.18 -574.821 -1209.86 -529.524L-1210.07 -530.086C-1088.39 -575.383 -979.09 -615.567 -879.936 -648.762L-879.745 -648.193ZM-869.679 -340.949C-865.46 -447.235 -865.189 -546.881 -868.342 -640.276L-867.742 -640.296C-864.588 -546.885 -864.86 -447.226 -869.079 -340.925L-869.679 -340.949ZM-866.465 -164.768C-871.027 -218.481 -872.213 -277.094 -869.679 -340.949L-869.079 -340.925C-871.613 -277.092 -870.427 -218.504 -865.867 -164.818L-866.465 -164.768ZM-1171.97 -378.576C-1081.02 -326.333 -983.414 -254.622 -881.609 -157.485L-882.023 -157.051C-983.796 -254.158 -1081.36 -325.839 -1172.27 -378.056L-1171.97 -378.576ZM-1714.26 -493.445C-1613.61 -518.779 -1416.89 -519.256 -1171.97 -378.576L-1172.27 -378.056C-1417.07 -518.665 -1613.62 -518.156 -1714.11 -492.863L-1714.26 -493.445ZM-1173.16 -377.142C-1417.4 -517.433 -1613.51 -517.157 -1713.93 -492.087L-1714.08 -492.669C-1613.49 -517.78 -1417.22 -518.023 -1172.86 -377.663L-1173.16 -377.142ZM-866.063 -139.856C-973.925 -245.295 -1077.25 -322.054 -1173.16 -377.142L-1172.86 -377.663C-1076.9 -322.547 -973.539 -245.756 -865.644 -140.285L-866.063 -139.856ZM-692.989 249.229C-780.932 171.569 -842.866 48.6779 -863.489 -134.56L-862.893 -134.627C-842.281 48.508 -780.394 171.244 -692.591 248.78L-692.989 249.229ZM-619.731 300.706C-645.715 286.404 -670.223 269.333 -692.989 249.229L-692.591 248.78C-669.86 268.853 -645.388 285.899 -619.442 300.181L-619.731 300.706ZM-1053.62 678.548C-975.069 633.276 -759.12 508.815 -616.755 313.553L-616.27 313.907C-758.718 509.282 -974.773 633.798 -1053.32 679.068L-1053.62 678.548ZM-1070.97 688.625C-1066.34 685.879 -1060.51 682.517 -1053.62 678.548L-1053.32 679.068C-1060.21 683.038 -1066.04 686.397 -1070.67 689.142L-1070.97 688.625ZM-1052.89 679.975C-1059.75 683.926 -1065.55 687.269 -1070.16 690.001L-1070.46 689.485C-1065.85 686.751 -1060.04 683.405 -1053.19 679.455L-1052.89 679.975ZM-1052.82 679.935L-1052.89 679.975L-1053.19 679.455L-1053.12 679.414L-1052.82 679.935ZM-613.879 312.315C-756.45 509.141 -974.001 634.511 -1052.82 679.934L-1053.12 679.415C-974.298 633.99 -756.852 508.674 -614.365 311.963L-613.879 312.315ZM-482.781 349.565C-525.07 341.114 -565.299 328.027 -602.724 309.573L-602.459 309.034C-565.086 327.464 -524.907 340.535 -482.663 348.977L-482.781 349.565ZM-341.345 585.403C-386.658 502.092 -431.962 424.923 -477.08 353.467L-476.572 353.147C-431.447 424.614 -386.137 501.795 -340.818 585.117L-341.345 585.403ZM-256.66 723.313C-285.251 682.43 -313.51 636.58 -341.345 585.403L-340.818 585.117C-312.993 636.276 -284.745 682.107 -256.168 722.969L-256.66 723.313ZM-356.515 784.917C-323.433 767.491 -291.362 751.243 -260.062 736.288L-259.804 736.829C-291.095 751.78 -323.158 768.025 -356.235 785.448L-356.515 784.917ZM-256.271 736.252C-288.528 751.601 -321.606 768.337 -355.769 786.333L-356.049 785.802C-321.88 767.804 -288.795 751.064 -256.529 735.711L-256.271 736.252ZM112.731 1001.75C-7.80582 979.124 -129.251 899.493 -245.441 739.077L-244.955 738.725C-128.825 899.058 -7.50084 978.571 112.841 1001.16L112.731 1001.75ZM557.652 858.678C419.568 966.341 266.922 1030.69 112.731 1001.75L112.841 1001.16C266.79 1030.06 419.261 965.819 557.283 858.205L557.652 858.678ZM670.249 758.838C634.063 794.789 596.435 828.439 557.652 858.678L557.283 858.205C596.045 827.983 633.655 794.349 669.826 758.413L670.249 758.838ZM741.289 761.35C720.299 760.992 699.096 759.371 677.693 756.371L677.776 755.777C699.155 758.773 720.334 760.392 741.299 760.75L741.289 761.35ZM952.296 1056.62C888.171 978.59 820.473 881.259 748.632 765.503L749.141 765.186C820.974 880.929 888.656 978.236 952.759 1056.24L952.296 1056.62ZM1211.18 1271.89C1131.22 1242.73 1045.51 1170.05 952.296 1056.62L952.759 1056.24C1045.96 1169.64 1131.58 1242.22 1211.38 1271.32L1211.18 1271.89ZM1435.67 1225.96C1400.52 1256.34 1364.37 1275.11 1327.01 1282.64C1289.66 1290.17 1251.11 1286.45 1211.18 1271.89L1211.38 1271.32C1251.23 1285.86 1289.66 1289.56 1326.89 1282.05C1364.13 1274.55 1400.19 1255.83 1435.28 1225.5L1435.67 1225.96ZM1212.17 1270.33C1251.97 1284.85 1290.28 1288.52 1327.32 1281.07C1364.35 1273.62 1400.13 1255.04 1434.89 1225.05L1435.28 1225.5C1400.46 1255.55 1364.59 1274.18 1327.43 1281.66C1290.28 1289.13 1251.86 1285.45 1211.96 1270.9L1212.17 1270.33ZM953.669 1055.33C1046.86 1168.73 1132.44 1241.26 1212.17 1270.33L1211.96 1270.9C1132.08 1241.77 1046.42 1169.13 953.206 1055.71L953.669 1055.33ZM756.584 774.771C825.994 885.918 891.515 979.703 953.669 1055.33L953.206 1055.71C891.03 980.057 825.493 886.249 756.075 775.089L756.584 774.771ZM1140.11 626.738C1026.66 702.138 899.998 757.71 764.004 761.247L763.989 760.647C899.828 757.114 1026.38 701.604 1139.78 626.238L1140.11 626.738ZM1478.48 331.633C1387.88 422.811 1273 538.416 1140.11 626.738L1139.78 626.238C1272.61 537.955 1387.45 422.393 1478.06 331.21L1478.48 331.633ZM-616.989 301.138C-643.561 286.671 -668.606 269.319 -691.84 248.802L-691.443 248.352C-668.244 268.839 -643.236 286.165 -616.702 300.611L-616.989 301.138ZM-691.84 248.802C-775.872 174.597 -836.17 59.0127 -859.3 -111.205L-858.706 -111.286C-835.589 58.8292 -775.34 174.266 -691.443 248.352L-691.84 248.802ZM-843.96 -118.761C-753.078 -27.1694 -659.151 84.8767 -563.874 221.494L-564.366 221.838C-659.626 85.2453 -753.53 -26.7737 -844.386 -118.338L-843.96 -118.761ZM-564.041 231.345C-563.997 231.265 -563.952 231.184 -563.907 231.104L-563.383 231.395C-563.427 231.476 -563.472 231.556 -563.517 231.636L-564.041 231.345ZM-605.658 297.97C-590.783 276.574 -576.823 254.362 -564.041 231.345L-563.517 231.636C-576.309 254.672 -590.28 276.901 -605.165 298.312L-605.658 297.97ZM-562.643 232.122C-575.021 254.413 -588.502 275.948 -602.846 296.72L-603.34 296.379C-589.006 275.622 -575.536 254.103 -563.167 231.831L-562.643 232.122ZM-499.933 345.079C-534.929 336.863 -568.403 325.297 -599.911 309.941L-599.648 309.402C-568.184 324.736 -534.753 336.288 -499.796 344.495L-499.933 345.079ZM-556.904 231.529C-534.804 263.474 -512.634 296.745 -490.415 331.392L-490.92 331.716C-513.136 297.074 -535.302 263.81 -557.397 231.871L-556.904 231.529ZM-553.243 212.511C-404.268 -39.3144 -155.367 -142.56 -21.4223 -191.831L-21.2151 -191.268C-155.14 -142.005 -403.865 -38.8182 -552.727 212.816L-553.243 212.511ZM-20.8701 -190.33C-156.151 -140.567 -408.363 -35.8444 -556.465 221.201L-556.984 220.901C-408.77 -36.3394 -156.379 -141.123 -21.0772 -190.893L-20.8701 -190.33ZM-556.081 230.477C-530.657 267.221 -505.139 305.719 -479.561 346.05L-480.068 346.371C-505.642 306.047 -531.155 267.556 -556.574 230.818L-556.081 230.477ZM-473.848 349.928C-399.881 363.599 -319.818 363.349 -237.59 353.066L-237.515 353.661C-319.788 363.95 -399.914 364.203 -473.957 350.518L-473.848 349.928ZM-237.59 353.066C-64.4126 331.409 118.489 265.241 274.452 190.728L274.711 191.269C118.715 265.797 -64.2506 331.994 -237.515 353.661L-237.59 353.066ZM274.452 190.728C315.097 171.31 353.905 151.328 390.226 131.426L390.514 131.952C354.184 151.859 315.366 171.846 274.711 191.269L274.452 190.728ZM393.787 119.897C359.429 51.9686 324.266 -18.7144 288.26 -92.0957L288.799 -92.36C324.804 -18.9806 359.966 51.7002 394.322 119.626L393.787 119.897ZM288.26 -92.0957C86.7717 -502.734 -75.498 -691.003 -293.513 -737.193L-293.389 -737.78C-75.0662 -691.525 87.3125 -502.994 288.799 -92.36L288.26 -92.0957ZM-293.513 -737.193C-444.944 -769.275 -623.346 -732.832 -860.662 -654.536L-860.85 -655.106C-623.53 -733.403 -444.991 -769.898 -293.389 -737.78L-293.513 -737.193ZM-866.666 -645.95C-863.315 -550.96 -863.513 -449.483 -867.815 -341.106L-868.414 -341.13C-864.113 -449.493 -863.915 -550.954 -867.265 -645.928L-866.666 -645.95ZM-867.815 -341.106C-870.722 -267.879 -868.731 -201.561 -862.371 -141.633L-862.968 -141.57C-869.331 -201.531 -871.322 -267.878 -868.414 -341.13L-867.815 -341.106ZM-859.83 -136.377C-765.382 -43.411 -667.508 71.5498 -568.13 213.183L-568.622 213.528C-667.98 71.921 -765.831 -43.0114 -860.251 -135.949L-859.83 -136.377ZM729.313 760.006C716.89 759.509 704.395 758.565 691.829 757.149L691.897 756.553C704.448 757.967 716.929 758.91 729.337 759.407L729.313 760.006ZM722.228 721.284C727.283 729.629 732.318 737.885 737.332 746.054L736.821 746.368C731.806 738.198 726.771 729.94 721.715 721.594L722.228 721.284ZM686.477 741.607C693.507 734.399 700.48 727.109 707.394 719.744L707.831 720.155C700.915 727.522 693.94 734.815 686.906 742.026L686.477 741.607ZM660.023 768.066C626.908 800.353 592.628 830.648 557.4 858.115L557.031 857.642C592.239 830.19 626.503 799.91 659.604 767.636L660.023 768.066ZM528.834 712.541C571.535 731.503 613.613 744.405 654.971 752.068L654.862 752.658C613.456 744.986 571.333 732.07 528.59 713.089L528.834 712.541ZM76.4027 629.286C215.052 612.757 356.97 636.221 528.834 712.541L528.59 713.089C356.803 636.803 214.994 613.368 76.4737 629.881L76.4027 629.286ZM-238.782 727.369C-128.189 676.046 -26.7944 641.588 76.4027 629.286L76.4737 629.881C-26.6377 642.173 -127.968 676.605 -238.529 727.913L-238.782 727.369ZM113.498 1000.8C-6.18097 978.33 -126.819 899.593 -242.335 741.178L-241.85 740.824C-126.395 899.156 -5.87724 977.776 113.609 1000.21L113.498 1000.8ZM557.4 858.115C419.757 965.433 267.486 1029.7 113.498 1000.8L113.609 1000.21C267.354 1029.07 419.45 964.911 557.031 857.642L557.4 858.115ZM-242.341 727.922C-130.47 675.766 -28.027 640.728 76.2842 628.293L76.3553 628.888C-27.8696 641.313 -130.249 676.325 -242.088 728.466L-242.341 727.922ZM-339.825 584.313C-311.332 636.699 -282.398 683.495 -253.124 725.086L-253.614 725.432C-282.904 683.819 -311.849 637.004 -340.352 584.6L-339.825 584.313ZM-465.918 367.727C-423.988 434.856 -381.91 506.937 -339.825 584.313L-340.352 584.6C-382.432 507.234 -424.504 435.163 -466.426 368.045L-465.918 367.727ZM-237.587 354.274C-313.542 363.773 -387.643 364.737 -456.821 354.139L-456.73 353.546C-387.62 364.134 -313.576 363.172 -237.662 353.679L-237.587 354.274ZM275.424 191.659C119.336 266.231 -63.9136 332.556 -237.587 354.274L-237.662 353.679C-64.0756 331.971 119.109 265.674 275.165 191.118L275.424 191.659ZM390.255 132.878C354.201 152.609 315.713 172.411 275.424 191.659L275.165 191.118C315.444 171.874 353.922 152.077 389.967 132.351L390.255 132.878ZM711.723 705.029C616.198 545.982 513.46 355.858 402.245 136.597L402.78 136.325C513.992 355.579 616.723 545.69 712.238 704.72L711.723 705.029ZM676.382 751.01C687.953 739.359 699.374 727.476 710.634 715.398L711.073 715.807C699.808 727.889 688.383 739.777 676.808 751.433L676.382 751.01ZM529.24 711.627C576.623 732.669 623.24 746.235 668.957 753.451L668.863 754.044C623.093 746.819 576.426 733.238 528.996 712.175L529.24 711.627ZM76.2842 628.293C215.149 611.738 357.249 635.25 529.24 711.627L528.996 712.175C357.082 635.833 215.091 612.35 76.3553 628.888L76.2842 628.293ZM712.238 704.72C714.369 708.268 713.896 712.78 711.073 715.807L710.634 715.398C713.274 712.567 713.717 708.347 711.723 705.029L712.238 704.72ZM-466.426 368.045C-470.737 361.144 -464.754 352.316 -456.73 353.546L-456.821 354.139C-464.355 352.984 -469.947 361.277 -465.918 367.727L-466.426 368.045ZM-242.088 728.466C-246.16 730.364 -251.025 729.11 -253.614 725.432L-253.124 725.086C-250.705 728.523 -246.154 729.7 -242.341 727.922L-242.088 728.466ZM-238.529 727.913C-243.453 730.198 -245.049 736.436 -241.85 740.824L-242.335 741.178C-245.756 736.486 -244.05 729.814 -238.782 727.369L-238.529 727.913ZM659.604 767.636C664.711 762.658 661.899 753.961 654.862 752.658L654.971 752.068C662.462 753.455 665.496 762.73 660.023 768.066L659.604 767.636ZM721.715 721.594C718.714 716.639 711.798 715.929 707.831 720.155L707.394 719.744C711.631 715.231 719.02 715.987 722.228 721.284L721.715 721.594ZM691.829 757.149C684.22 756.292 681.148 747.07 686.477 741.607L686.906 742.026C681.908 747.15 684.809 755.754 691.897 756.553L691.829 757.149ZM729.337 759.407C736.168 759.68 740.408 752.21 736.821 746.368L737.332 746.054C741.16 752.289 736.642 760.3 729.313 760.006L729.337 759.407ZM-862.371 -141.633C-862.159 -139.635 -861.262 -137.787 -859.83 -136.377L-860.251 -135.949C-861.781 -137.456 -862.741 -139.433 -862.968 -141.57L-862.371 -141.633ZM-860.662 -654.536C-864.338 -653.323 -866.802 -649.815 -866.666 -645.95L-867.265 -645.928C-867.411 -650.063 -864.777 -653.81 -860.85 -655.106L-860.662 -654.536ZM390.226 131.426C394.331 129.177 395.9 124.075 393.787 119.897L394.322 119.626C396.581 124.092 394.905 129.546 390.514 131.952L390.226 131.426ZM-552.727 212.816C-556.209 218.702 -564.687 219.135 -568.622 213.528L-568.13 213.183C-564.453 218.424 -556.509 218.031 -553.243 212.511L-552.727 212.816ZM-563.874 221.494C-561.831 224.424 -561.649 228.275 -563.383 231.395L-563.907 231.104C-562.284 228.182 -562.455 224.578 -564.366 221.838L-563.874 221.494ZM1435.28 1225.5C1435.28 1225.5 1435.28 1225.5 1435.28 1225.5C1435.28 1225.5 1435.28 1225.5 1435.28 1225.5L1435.84 1225.27C1435.94 1225.51 1435.87 1225.79 1435.67 1225.96L1435.28 1225.5ZM741.299 760.75C744.492 760.804 747.456 762.471 749.141 765.186L748.632 765.503C747.055 762.963 744.28 761.4 741.289 761.35L741.299 760.75ZM669.826 758.413C671.916 756.336 674.861 755.369 677.776 755.777L677.693 756.371C674.961 755.989 672.205 756.896 670.249 758.838L669.826 758.413ZM-356.319 785.719C-356.268 785.816 -356.147 785.854 -356.049 785.802L-355.769 786.333C-356.159 786.539 -356.644 786.39 -356.85 785.998L-356.319 785.719ZM-356.235 785.448C-356.333 785.5 -356.371 785.621 -356.319 785.719L-356.85 785.998C-357.056 785.607 -356.905 785.123 -356.515 784.917L-356.235 785.448ZM-256.168 722.969C-252.847 727.718 -254.573 734.33 -259.804 736.829L-260.062 736.288C-255.167 733.949 -253.55 727.76 -256.66 723.313L-256.168 722.969ZM-482.663 348.977C-480.149 349.479 -477.943 350.976 -476.572 353.147L-477.08 353.467C-478.361 351.438 -480.425 350.036 -482.781 349.565L-482.663 348.977ZM-614.365 311.963C-611.65 308.215 -606.607 306.989 -602.459 309.034L-602.724 309.573C-606.613 307.655 -611.337 308.806 -613.879 312.315L-614.365 311.963ZM-1070.74 689.415C-1070.68 689.51 -1070.56 689.542 -1070.46 689.485L-1070.16 690.001C-1070.54 690.226 -1071.03 690.101 -1071.25 689.722L-1070.74 689.415ZM-1070.67 689.142C-1070.76 689.198 -1070.79 689.32 -1070.74 689.415L-1071.25 689.722C-1071.48 689.342 -1071.35 688.851 -1070.97 688.625L-1070.67 689.142ZM-865.644 -140.285C-864.107 -138.783 -863.133 -136.761 -862.893 -134.627L-863.489 -134.56C-863.714 -136.558 -864.627 -138.452 -866.063 -139.856L-865.644 -140.285ZM-1714.11 -492.863C-1714.13 -492.857 -1714.15 -492.842 -1714.17 -492.812L-1714.71 -493.074C-1714.62 -493.256 -1714.46 -493.394 -1714.26 -493.445L-1714.11 -492.863ZM-479.561 346.05C-478.274 348.08 -476.209 349.492 -473.848 349.928L-473.957 350.518C-476.485 350.051 -478.692 348.54 -480.068 346.371L-479.561 346.05ZM-879.936 -648.762C-874.057 -650.73 -867.951 -646.492 -867.742 -640.296L-868.342 -640.276C-868.537 -646.07 -874.247 -650.034 -879.745 -648.193L-879.936 -648.762ZM-20.4076 -191.352C-20.2588 -190.947 -20.4458 -190.486 -20.8701 -190.33L-21.0772 -190.893C-20.9832 -190.927 -20.929 -191.032 -20.9707 -191.145L-20.4076 -191.352ZM-1210.13 -530.247C-1210.16 -530.238 -1210.18 -530.219 -1210.19 -530.196L-1210.75 -530.402C-1210.68 -530.591 -1210.53 -530.74 -1210.34 -530.809L-1210.13 -530.247ZM-499.796 344.495C-492.381 346.235 -486.797 338.145 -490.92 331.716L-490.415 331.392C-486.013 338.257 -491.973 346.948 -499.933 345.079L-499.796 344.495ZM-1496.36 -1970.2C-1496.4 -1970.17 -1496.41 -1970.13 -1496.41 -1970.1C-1496.41 -1970.08 -1496.4 -1970.07 -1496.39 -1970.06C-1496.39 -1970.05 -1496.38 -1970.04 -1496.35 -1970.03L-1496.53 -1969.46C-1497.12 -1969.64 -1497.16 -1970.39 -1496.69 -1970.7L-1496.36 -1970.2ZM-602.846 296.72C-605.852 301.073 -604.39 307.091 -599.648 309.402L-599.911 309.941C-604.996 307.462 -606.546 301.022 -603.34 296.379L-602.846 296.72ZM-1496.28 -1970.22C-1496.31 -1970.22 -1496.33 -1970.22 -1496.36 -1970.2L-1496.69 -1970.7C-1496.52 -1970.81 -1496.31 -1970.85 -1496.11 -1970.79L-1496.28 -1970.22ZM-563.167 231.831C-561.837 229.435 -558.461 229.278 -556.904 231.529L-557.397 231.871C-558.703 229.983 -561.529 230.117 -562.643 232.122L-563.167 231.831ZM-855.714 -657.007C-861.602 -655.071 -867.76 -659.377 -868.012 -665.566L-867.413 -665.591C-867.176 -659.796 -861.407 -655.767 -855.901 -657.577L-855.714 -657.007ZM-859.3 -111.205C-860.479 -119.882 -850.126 -124.975 -843.96 -118.761L-844.386 -118.338C-850.148 -124.145 -859.807 -119.391 -858.706 -111.286L-859.3 -111.205ZM407.359 122.629C402.758 125.201 396.943 123.418 394.564 118.715L395.1 118.444C397.325 122.844 402.763 124.511 407.066 122.105L407.359 122.629ZM624.782 -20.8196C624.749 -20.8255 624.72 -20.817 624.698 -20.7985L624.312 -21.2578C624.474 -21.394 624.684 -21.4465 624.887 -21.4103L624.782 -20.8196ZM-619.442 300.181C-614.5 302.901 -612.939 309.337 -616.27 313.907L-616.755 313.553C-613.645 309.287 -615.094 303.259 -619.731 300.706L-619.442 300.181ZM403.025 135.42C400.761 130.957 402.436 125.483 406.805 123.044L407.097 123.568C403.009 125.85 401.442 130.973 403.56 135.148L403.025 135.42ZM1106.13 94.7735C1106.1 94.7858 1106.08 94.8072 1106.07 94.8335L1105.5 94.6368C1105.57 94.4359 1105.72 94.2851 1105.92 94.2123L1106.13 94.7735ZM-1714.17 -492.812C-1714.19 -492.768 -1714.18 -492.726 -1714.16 -492.698C-1714.15 -492.683 -1714.14 -492.674 -1714.12 -492.67C-1714.11 -492.666 -1714.1 -492.663 -1714.08 -492.669L-1713.93 -492.087C-1714.53 -491.936 -1714.95 -492.568 -1714.71 -493.074L-1714.17 -492.812ZM1435.28 1225.5C1435.28 1225.5 1435.28 1225.5 1435.28 1225.5C1435.28 1225.5 1435.28 1225.5 1435.28 1225.5C1435.28 1225.5 1435.28 1225.5 1435.28 1225.5C1435.28 1225.5 1435.28 1225.5 1435.28 1225.5C1435.28 1225.5 1435.28 1225.5 1435.28 1225.5C1435.28 1225.5 1435.28 1225.5 1435.28 1225.5L1434.89 1225.05C1435.19 1224.78 1435.68 1224.89 1435.84 1225.27L1435.28 1225.5ZM1106.27 94.8887C1106.28 94.8645 1106.28 94.8474 1106.27 94.8351C1106.27 94.8214 1106.26 94.8067 1106.25 94.7936C1106.22 94.7677 1106.18 94.755 1106.13 94.7735L1105.92 94.2123C1106.45 94.0103 1107.04 94.4949 1106.84 95.086L1106.27 94.8887ZM719.896 716.172C717.756 712.631 718.221 708.106 721.014 705.057L721.457 705.462C718.842 708.316 718.408 712.55 720.409 715.862L719.896 716.172ZM-616.702 300.611C-612.889 302.687 -608.138 301.537 -605.658 297.97L-605.165 298.312C-607.818 302.128 -612.904 303.362 -616.989 301.138L-616.702 300.611ZM624.841 -20.644C624.874 -20.6719 624.882 -20.7058 624.872 -20.7416C624.861 -20.7792 624.831 -20.8108 624.782 -20.8196L624.887 -21.4103C625.458 -21.3088 625.7 -20.5811 625.227 -20.1843L624.841 -20.644ZM-556.465 221.201C-558.134 224.098 -557.983 227.727 -556.081 230.477L-556.574 230.818C-558.608 227.878 -558.769 223.999 -556.984 220.901L-556.465 221.201ZM-1210.19 -530.196C-1210.21 -530.13 -1210.14 -530.059 -1210.07 -530.086L-1209.86 -529.524C-1210.41 -529.321 -1210.95 -529.848 -1210.75 -530.402L-1210.19 -530.196ZM676.808 751.433C674.73 753.525 671.778 754.504 668.863 754.044L668.957 753.451C671.679 753.881 674.439 752.967 676.382 751.01L676.808 751.433ZM1559.12 250.959C1559.04 250.877 1558.92 250.874 1558.84 250.949L1558.43 250.512C1558.75 250.208 1559.26 250.227 1559.56 250.548L1559.12 250.959ZM-865.867 -164.818C-865.13 -156.131 -875.712 -151.029 -882.023 -157.051L-881.609 -157.485C-875.7 -151.847 -865.774 -156.627 -866.465 -164.768L-865.867 -164.818ZM752.105 760.421C748.902 760.433 745.928 758.762 744.246 756.039L744.756 755.723C746.33 758.271 749.111 759.832 752.103 759.821L752.105 760.421ZM756.075 775.089C752.202 768.886 756.696 760.837 763.989 760.647L764.004 761.247C757.158 761.425 752.966 768.976 756.584 774.771L756.075 775.089ZM724.661 701.055C720.489 705.639 713.1 704.902 709.914 699.585L710.429 699.277C713.408 704.249 720.316 704.938 724.218 700.651L724.661 701.055ZM-21.4223 -191.831C-20.9979 -191.987 -20.5564 -191.757 -20.4076 -191.352L-20.9707 -191.145C-21.0125 -191.259 -21.1212 -191.303 -21.2151 -191.268L-21.4223 -191.831ZM-868.458 -659.915C-868.296 -655.784 -870.878 -651.994 -874.802 -650.684L-874.992 -651.253C-871.325 -652.477 -868.906 -656.024 -869.057 -659.891L-868.458 -659.915ZM-256.529 735.711C-252.467 733.778 -247.59 735.088 -244.955 738.725L-245.441 739.077C-247.91 735.668 -252.477 734.447 -256.271 736.252L-256.529 735.711ZM389.967 132.351C394.587 129.823 400.398 131.628 402.78 136.325L402.245 136.597C400.016 132.201 394.578 130.512 390.255 132.878L389.967 132.351ZM1559.11 251.24C1559.19 251.166 1559.2 251.04 1559.12 250.959L1559.56 250.548C1559.86 250.869 1559.85 251.374 1559.52 251.677L1559.11 251.24Z" fill="url(#paint1_linear_230_982)" fill-opacity="0.5" mask="url(#path-1-outside-1_230_982)"/>
</g>
<defs>
<radialGradient id="paint0_radial_230_982" cx="0" cy="0" r="1" gradientUnits="userSpaceOnUse" gradientTransform="translate(218.882 82.1568) rotate(143.884) scale(2216.73 1777.62)">
<stop stop-color="#B9C4FF"/>
<stop offset="0.0565421" stop-color="#666BFC"/>
<stop offset="0.202377" stop-color="#BDEAFF"/>
<stop offset="0.239583" stop-color="#C4F4FF"/>
<stop offset="0.375" stop-color="#95B3FF"/>
<stop offset="0.875" stop-color="#666BFC"/>
<stop offset="0.90625" stop-color="#B9C4FF"/>
</radialGradient>
<linearGradient id="paint1_linear_230_982" x1="1234.26" y1="930.796" x2="-1577.54" y2="-659.68" gradientUnits="userSpaceOnUse">
<stop stop-color="#94F4E9" stop-opacity="0"/>
<stop offset="0.374254" stop-color="#91F4E8" stop-opacity="0.39"/>
<stop offset="1" stop-color="white" stop-opacity="0.6"/>
</linearGradient>
<clipPath id="clip0_230_982">
<rect width="960" height="1280" fill="white"/>
</clipPath>
</defs>
</svg>
